<svg width="270" height="625" viewBox="0 0 270 625" fill="none" xmlns="http://www.w3.org/2000/svg">
<path d="M255.956 57.1046C249.523 18.8802 244.456 10.1047 204.456 5.10463C159.456 1.6047 104.456 2.60462 57.4564 7.10466C29.5161 9.77981 21.847 24.6047 15.9563 57.1046C1.45635 137.105 2.45648 239.605 6.95637 335.605C8.73563 373.563 16.7897 506.938 22.4564 569.605C24.5362 592.605 34.9564 618.621 64.9564 620.605L65.1976 620.621C125.516 624.609 148.033 626.097 205.456 620.605C244.663 616.854 250.187 595.605 253.456 569.605C261.856 502.805 266.623 385.771 267.956 335.605C271.456 169.105 264.456 107.605 255.956 57.1046Z" fill="url(#paint0_linear_2_107)"/>
<g opacity="0.75" filter="url(#filter0_f_2_107)">
<path d="M196.198 6.04257C189.086 5.36564 181.058 4.85874 172 4.5C181.18 4.5858 189.197 5.14582 196.198 6.04257C228.736 9.13951 242.122 15.7953 247.456 28.1047C252.256 40.1047 255.29 58.2714 256.456 66.6047L262.085 109.757C262.217 110.739 262.341 111.69 262.456 112.605L262.085 109.757C258.622 83.9028 249.875 35.9306 243.456 27.1047C240.143 22.5485 229.997 10.3717 196.198 6.04257Z" fill="white"/>
</g>
<g filter="url(#filter1_f_2_107)">
<path d="M30 19.5C42.7427 4.33015 65.9565 7.10474 91.4565 4.60474C53.9565 11.1047 54.4565 11.7476 51.4565 12.6047C28.8249 19.0709 28.4565 31.6047 21.4565 57.1047C17.1306 72.8631 6.95648 150.605 4.95648 187.105C4.95648 171.605 6.95648 141.105 7.95648 125.605C8.75648 113.205 13.28 77.1047 16.4565 59.1047C17.9565 50.6047 19.5 32 30 19.5Z" fill="url(#paint1_linear_2_107)"/>
</g>
<g filter="url(#filter2_f_2_107)">
<path d="M30.4565 585.105C12.0565 458.705 11.1232 261.438 12.9565 178.605L14.4565 254.605C15.2898 279.938 16.5565 344.205 16.9565 370.605C17.4565 403.605 31.9565 568.605 32.9565 578.605C33.9565 588.605 39.4565 596.105 40.4565 596.605C41.4565 597.105 40.9565 598.605 35.4565 593.605C31.0565 589.605 30.2898 586.271 30.4565 585.105Z" fill="url(#paint2_linear_2_107)"/>
</g>
<g filter="url(#filter3_f_2_107)">
<path d="M246.371 594.105C264.771 467.705 265.704 270.438 263.871 187.605L260.956 263.105C260.123 288.438 258.856 353.705 258.456 380.105C257.956 413.105 244.871 577.605 243.871 587.605C242.871 597.605 237.371 605.105 236.371 605.605C235.371 606.105 235.871 607.605 241.371 602.605C245.771 598.605 246.538 595.271 246.371 594.105Z" fill="url(#paint3_linear_2_107)"/>
</g>
<path d="M242.957 53.6007C237.146 15.7907 224.457 13.9152 195.457 10.7822C166.456 7.64909 158.79 6.60474 135.456 6.60474C112.123 6.60474 94.4565 8.77355 75.9566 10.7822C57.4567 12.7908 38.0088 14.2558 29.9565 54.1229C16.4565 120.962 -5.2684 292.236 41.4565 368.996C88.1814 445.756 172.956 455.155 228.956 367.952C284.956 280.748 249.457 95.8971 242.957 53.6007Z" fill="url(#paint4_linear_2_107)"/>
<path d="M27.9565 290.147C33.1599 323.225 58.4565 354.201 66.4565 358.552L46.4565 376.306C33.2565 356.255 24.9565 332.966 19.4565 306.335C-3.04347 188.322 30.9565 43.1571 37.9565 28.5361C42.9939 18.0143 67.4565 14.0893 79.9565 16.0039C72.6232 16.5261 57.4565 19.1369 46.9565 27.4918C38.6291 34.1179 38.4565 38.9798 30.9565 87.5423C22.4565 144.982 16.4565 217.042 27.9565 290.147Z" fill="url(#paint5_linear_2_107)"/>
<path d="M233.956 325.133C202.921 388.839 136.456 398.76 94.9565 378.917L76.4565 409.204C111.456 432.702 131.729 430.87 152.956 426.958C178.456 422.258 229.956 398.238 252.956 308.423C271.63 235.503 251.123 94.8527 238.456 35.3245H229.956C265.456 233.752 248.456 295.369 233.956 325.133Z" fill="url(#paint6_linear_2_107)"/>
<path d="M228.862 53.1236C224.294 27.5369 220.862 22.3151 191.862 18.6599C191.862 18.6599 168.362 14.4824 130.362 15.0047C92.3621 15.5269 68.3621 21.2708 68.3621 21.2708C50.9512 24.9074 49.3778 31.6453 44.4383 52.7976L44.3622 53.1236C40.5817 69.3111 23.0112 123.05 29.4565 251.551C32.9114 320.433 60.8621 341.888 74.8621 350.765C138.456 399.282 192.76 355.419 199.362 350.765C231.362 328.207 241.956 282.36 242.956 251.551C246.238 150.453 236.461 95.69 228.918 53.4363L228.862 53.1236Z" fill="url(#paint7_linear_2_107)"/>
<g filter="url(#filter4_ii_2_107)">
<path d="M44.1415 140.166C44.3119 132.986 49.8945 127.152 57.0633 126.714C74.0824 125.674 105.87 124.032 136.956 124.032C168.17 124.032 200.559 125.687 217.822 126.726C225 127.158 230.601 132.997 230.772 140.185C231.212 158.722 231.956 193.809 231.956 218.969C231.956 243.833 231.229 278.389 230.788 297.09C230.611 304.551 224.597 310.522 217.136 310.691L136.956 312.5L57.7736 310.694C50.3141 310.524 44.3016 304.553 44.1254 297.093C43.6837 278.393 42.9565 243.834 42.9565 218.969C42.9565 193.8 43.7016 158.698 44.1415 140.166Z" fill="#77A67E"/>
</g>
<path d="M45.1412 140.19C45.2994 133.525 50.4777 128.118 57.1243 127.712C74.1354 126.672 105.899 125.032 136.956 125.032C168.14 125.032 200.507 126.686 217.762 127.724C224.418 128.125 229.614 133.538 229.772 140.209C230.212 158.747 230.956 193.822 230.956 218.969C230.956 243.82 230.23 278.366 229.788 297.066C229.624 303.99 224.044 309.535 217.113 309.691L136.957 311.5L57.7964 309.694C50.8675 309.536 45.2886 303.992 45.1251 297.07C44.6834 278.37 43.9565 243.821 43.9565 218.969C43.9565 193.813 44.7013 158.722 45.1412 140.19Z" stroke="url(#paint8_linear_2_107)" stroke-width="2"/>
<g opacity="0.6" filter="url(#filter5_f_2_107)">
<path d="M59 218.822H215V263.52C215 274.566 206.046 283.52 195 283.52H79C67.9543 283.52 59 274.566 59 263.52V218.822Z" fill="url(#paint9_linear_2_107)"/>
</g>
<g opacity="0.4" filter="url(#filter6_f_2_107)">
<path d="M233.456 141.613C233.456 131.065 227.456 126.845 220.456 124.736C227.456 123.329 235.456 125.366 235.456 135.987C235.456 150.052 233.956 245.692 231.956 282.964C232.623 239.598 233.456 154.975 233.456 141.613Z" fill="white"/>
</g>
<g opacity="0.6" filter="url(#filter7_f_2_107)">
<path d="M49.9565 125.447C48.7356 125.619 47.5146 126.168 46.3665 126.93C38.5071 134.867 40.5516 172.314 41.4565 186.629C39.9565 173.267 39.9565 144.856 39.9565 135.292C39.9565 133.698 42.8128 129.291 46.3665 126.93C47.3878 125.899 48.5764 125.366 49.9565 125.447Z" fill="white"/>
</g>
<g filter="url(#filter8_f_2_107)">
<path d="M138.711 117.001C168.175 117.074 213.956 121.219 213.956 121.219C213.956 121.219 168.106 119.126 138.711 119.11C108.727 119.094 60.9565 121.219 60.9565 121.219C60.9565 121.219 108.269 116.926 138.711 117.001Z" fill="#80838E"/>
</g>
<path opacity="0.3" d="M56.9568 140.91C49.457 153.569 53.9565 295.622 53.9565 295.622C53.9565 295.622 64.9568 233.741 110.457 188.73C155.957 143.72 218.456 137.394 218.456 137.394C218.456 137.394 64.4565 128.252 56.9568 140.91Z" fill="url(#paint10_linear_2_107)"/>
<g filter="url(#filter9_i_2_107)">
<rect x="95.9565" y="92" width="83" height="18" rx="3" fill="#121212"/>
</g>
<path d="M101.456 106.5V96H104.956L112.456 104.5H114.956V94" stroke="white" stroke-width="4"/>
<path d="M120.456 105V95.5H132.456V105H120.456Z" stroke="white" stroke-width="3"/>
<path d="M139.92 94.3953H136V106.395H139.92V102.221L145.52 106.395H150L143.84 100.656L150 94.3953H145.52L139.92 99.6127V94.3953Z" fill="white"/>
<path d="M166 94.3953L159 106.895H163.5L166 102.395H168.5L170.5 106.895H175L168.5 94.3953H166Z" fill="white"/>
<path d="M167.5 98.3953L168.5 100.645H166.5L167.5 98.3953Z" fill="#121212"/>
<path d="M154.456 94V107" stroke="white" stroke-width="4"/>
<ellipse cx="137.456" cy="50.8024" rx="6.5" ry="32.1976" fill="url(#paint11_linear_2_107)"/>
<g filter="url(#filter10_i_2_107)">
<ellipse cx="137.456" cy="27.4868" rx="3.5" ry="1.48035" fill="#232438"/>
</g>
<g filter="url(#filter11_i_2_107)">
<ellipse cx="137.456" cy="37.8492" rx="3.5" ry="1.48035" fill="#232438"/>
</g>
<g filter="url(#filter12_i_2_107)">
<ellipse cx="137.456" cy="50.4323" rx="3.5" ry="1.48035" fill="#232438"/>
</g>
<g filter="url(#filter13_i_2_107)">
<ellipse cx="137.456" cy="62.2752" rx="3.5" ry="1.48035" fill="#232438"/>
</g>
<g filter="url(#filter14_i_2_107)">
<ellipse cx="137.456" cy="74.1179" rx="3.5" ry="1.48035" fill="#232438"/>
</g>
<g filter="url(#filter15_d_2_107)">
<path d="M187.456 349.127C187.456 355.77 164.456 366.5 134.456 366.5C109.051 366.5 85.9565 355.324 85.9565 348.682C85.9565 345.564 109.051 342 134.456 342C159.862 342 187.456 346.009 187.456 349.127Z" fill="url(#paint12_linear_2_107)"/>
<path d="M186.452 349.259C186.417 349.778 186.171 350.423 185.606 351.186C184.996 352.01 184.062 352.907 182.8 353.84C180.275 355.706 176.556 357.63 171.86 359.367C162.477 362.836 149.345 365.5 134.456 365.5C121.89 365.5 109.892 362.734 101.055 359.155C96.6334 357.364 93.041 355.386 90.5739 353.477C89.3395 352.522 88.4158 351.607 87.8086 350.768C87.2289 349.967 86.9831 349.299 86.9585 348.77C86.9619 348.766 86.9656 348.762 86.9697 348.757C87.0476 348.669 87.2092 348.534 87.501 348.364C88.0824 348.026 88.9973 347.658 90.2507 347.28C92.7429 346.528 96.3671 345.799 100.821 345.162C109.718 343.888 121.795 343 134.456 343C147.113 343 160.317 343.999 170.347 345.385C175.365 346.078 179.561 346.865 182.485 347.663C183.954 348.064 185.055 348.455 185.769 348.818C186.129 349 186.34 349.15 186.447 349.254C186.448 349.255 186.45 349.257 186.452 349.259ZM86.9319 348.806C86.9319 348.806 86.9322 348.805 86.9331 348.804C86.9324 348.805 86.932 348.806 86.9319 348.806ZM186.497 349.308C186.5 349.312 186.501 349.313 186.501 349.313C186.5 349.313 186.499 349.312 186.497 349.308Z" stroke="url(#paint13_linear_2_107)" stroke-width="2"/>
</g>
<path d="M113.956 353.582C121.791 355.289 126.391 355.788 134.456 355.809C142.715 355.83 155.456 353.582 155.456 353.582" stroke="#348FAC" stroke-width="4" stroke-linecap="round"/>
<g filter="url(#filter16_d_2_107)">
<path d="M162.956 589C162.956 590.781 162.189 592.668 160.734 594.537C159.282 596.403 157.187 598.194 154.653 599.755C149.578 602.881 142.883 605 136.456 605C130.037 605 123.857 602.886 119.299 599.78C114.698 596.646 111.956 592.659 111.956 589C111.956 585.435 114.581 582.448 119.161 580.299C123.709 578.164 129.929 577 136.456 577C142.984 577 149.72 578.164 154.786 580.314C159.935 582.499 162.956 585.507 162.956 589Z" fill="url(#paint14_linear_2_107)" stroke="url(#paint15_linear_2_107)" stroke-width="2"/>
<path d="M138.956 593V596.5H150.456V593" stroke="black" stroke-width="2" stroke-linejoin="round"/>
<path d="M131.74 587.864C131.378 587.224 130.823 586.904 130.076 586.904C129.33 586.904 128.775 587.224 128.412 587.864C128.05 588.504 127.868 589.603 127.868 591.16C127.868 592.717 128.05 593.816 128.412 594.456C128.775 595.096 129.33 595.416 130.076 595.416C130.823 595.416 131.378 595.096 131.74 594.456C132.103 593.816 132.284 592.717 132.284 591.16C132.284 589.603 132.103 588.504 131.74 587.864ZM133.436 595.736C132.7 596.685 131.58 597.16 130.076 597.16C128.572 597.16 127.447 596.685 126.7 595.736C125.964 594.787 125.596 593.261 125.596 591.16C125.596 589.059 125.964 587.533 126.7 586.584C127.447 585.635 128.572 585.16 130.076 585.16C131.58 585.16 132.7 585.635 133.436 586.584C134.183 587.533 134.556 589.059 134.556 591.16C134.556 593.261 134.183 594.787 133.436 595.736Z" fill="black"/>
</g>
<g filter="url(#filter17_d_2_107)">
<path d="M162.956 544C162.956 545.781 162.189 547.668 160.734 549.537C159.282 551.403 157.187 553.194 154.653 554.755C149.578 557.881 142.883 560 136.456 560C130.037 560 123.857 557.886 119.299 554.78C114.698 551.646 111.956 547.659 111.956 544C111.956 540.435 114.581 537.448 119.161 535.299C123.709 533.164 129.929 532 136.456 532C142.984 532 149.72 533.164 154.786 535.314C159.935 537.499 162.956 540.507 162.956 544Z" fill="url(#paint16_linear_2_107)" stroke="url(#paint17_linear_2_107)" stroke-width="2"/>
<path d="M129.756 545.704C128.412 546.141 127.74 546.803 127.74 547.688C127.74 548.243 127.954 548.691 128.38 549.032C128.807 549.363 129.372 549.528 130.076 549.528C130.78 549.528 131.335 549.363 131.74 549.032C132.156 548.691 132.364 548.243 132.364 547.688C132.364 547.219 132.194 546.829 131.852 546.52C131.511 546.211 130.903 545.939 130.028 545.704C129.932 545.672 129.842 545.672 129.756 545.704ZM130.076 540.792C129.458 540.792 128.972 540.931 128.62 541.208C128.279 541.485 128.108 541.853 128.108 542.312C128.108 543.091 128.738 543.661 129.996 544.024C130.114 544.045 130.199 544.045 130.252 544.024C131.468 543.64 132.076 543.069 132.076 542.312C132.076 541.853 131.9 541.485 131.548 541.208C131.196 540.931 130.706 540.792 130.076 540.792ZM133.372 550.248C132.583 550.856 131.484 551.16 130.076 551.16C128.668 551.16 127.57 550.856 126.78 550.248C125.991 549.64 125.596 548.824 125.596 547.8C125.596 547.213 125.788 546.675 126.172 546.184C126.556 545.683 127.127 545.272 127.884 544.952C127.906 544.952 127.916 544.941 127.916 544.92C127.916 544.909 127.911 544.904 127.9 544.904C127.282 544.595 126.802 544.195 126.46 543.704C126.13 543.213 125.964 542.675 125.964 542.088C125.964 541.213 126.327 540.509 127.052 539.976C127.778 539.432 128.786 539.16 130.076 539.16C131.367 539.16 132.375 539.432 133.1 539.976C133.826 540.509 134.188 541.213 134.188 542.088C134.188 543.197 133.527 544.056 132.204 544.664C132.194 544.664 132.188 544.675 132.188 544.696C132.188 544.707 132.194 544.712 132.204 544.712C133.772 545.309 134.556 546.339 134.556 547.8C134.556 548.824 134.162 549.64 133.372 550.248Z" fill="black"/>
<path d="M141.266 546C141.42 546 141.553 546.057 141.666 546.17C141.78 546.283 141.836 546.417 141.836 546.57V546.73C141.836 546.883 141.78 547.017 141.666 547.13C141.553 547.243 141.42 547.3 141.266 547.3H140.376C140.316 547.3 140.286 547.33 140.286 547.39V548.8C140.286 549.2 140.32 549.45 140.386 549.55C140.453 549.65 140.603 549.7 140.836 549.7C140.93 549.7 141.043 549.69 141.176 549.67C141.316 549.65 141.443 549.687 141.556 549.78C141.676 549.867 141.736 549.98 141.736 550.12V550.38C141.736 550.547 141.683 550.697 141.576 550.83C141.476 550.957 141.346 551.03 141.186 551.05C140.953 551.083 140.67 551.1 140.336 551.1C139.623 551.1 139.12 550.947 138.826 550.64C138.533 550.333 138.386 549.787 138.386 549V547.39C138.386 547.33 138.356 547.3 138.296 547.3H137.906C137.753 547.3 137.62 547.243 137.506 547.13C137.393 547.017 137.336 546.883 137.336 546.73V546.57C137.336 546.417 137.393 546.283 137.506 546.17C137.62 546.057 137.753 546 137.906 546H138.296C138.356 546 138.386 545.97 138.386 545.91V544.67C138.386 544.517 138.443 544.383 138.556 544.27C138.67 544.157 138.803 544.1 138.956 544.1H139.716C139.87 544.1 140.003 544.157 140.116 544.27C140.23 544.383 140.286 544.517 140.286 544.67V545.91C140.286 545.97 140.316 546 140.376 546H141.266ZM147.524 545.8C147.678 545.8 147.811 545.857 147.924 545.97C148.038 546.083 148.094 546.217 148.094 546.37V550.43C148.094 550.583 148.038 550.717 147.924 550.83C147.811 550.943 147.678 551 147.524 551H146.844C146.684 551 146.548 550.947 146.434 550.84C146.321 550.727 146.261 550.59 146.254 550.43V550.35C146.254 550.343 146.251 550.34 146.244 550.34C146.231 550.34 146.224 550.343 146.224 550.35C145.811 550.85 145.301 551.1 144.694 551.1C144.108 551.1 143.684 550.937 143.424 550.61C143.171 550.283 143.044 549.713 143.044 548.9V546.37C143.044 546.217 143.101 546.083 143.214 545.97C143.328 545.857 143.461 545.8 143.614 545.8H144.324C144.478 545.8 144.611 545.857 144.724 545.97C144.838 546.083 144.894 546.217 144.894 546.37V548.8C144.894 549.107 144.934 549.317 145.014 549.43C145.101 549.543 145.244 549.6 145.444 549.6C145.631 549.6 145.801 549.527 145.954 549.38C146.114 549.233 146.194 549.073 146.194 548.9V546.37C146.194 546.217 146.251 546.083 146.364 545.97C146.478 545.857 146.611 545.8 146.764 545.8H147.524ZM153.894 545.8C154.034 545.8 154.147 545.857 154.234 545.97C154.321 546.083 154.344 546.207 154.304 546.34L153.074 550.46C153.021 550.62 152.927 550.75 152.794 550.85C152.661 550.95 152.511 551 152.344 551H150.984C150.811 551 150.657 550.95 150.524 550.85C150.391 550.75 150.301 550.62 150.254 550.46L149.024 546.34C148.984 546.207 149.007 546.083 149.094 545.97C149.181 545.857 149.294 545.8 149.434 545.8H150.314C150.474 545.8 150.617 545.853 150.744 545.96C150.877 546.067 150.961 546.2 150.994 546.36L151.674 549.89C151.674 549.897 151.677 549.9 151.684 549.9C151.691 549.9 151.694 549.897 151.694 549.89L152.374 546.36C152.401 546.2 152.477 546.067 152.604 545.96C152.737 545.853 152.887 545.8 153.054 545.8H153.894Z" fill="black"/>
</g>
<g filter="url(#filter18_d_2_107)">
<path d="M162.956 500C162.956 501.781 162.189 503.668 160.734 505.537C159.282 507.403 157.187 509.194 154.653 510.755C149.578 513.881 142.883 516 136.456 516C130.037 516 123.857 513.886 119.299 510.78C114.698 507.646 111.956 503.659 111.956 500C111.956 496.435 114.581 493.448 119.161 491.299C123.709 489.164 129.929 488 136.456 488C142.984 488 149.72 489.164 154.786 491.314C159.935 493.499 162.956 496.507 162.956 500Z" fill="url(#paint18_linear_2_107)" stroke="url(#paint19_linear_2_107)" stroke-width="2"/>
<path d="M127.292 508.92C127.036 508.856 126.823 508.717 126.652 508.504C126.492 508.28 126.412 508.029 126.412 507.752V507.592C126.412 507.379 126.498 507.208 126.668 507.08C126.85 506.952 127.042 506.92 127.244 506.984C128.044 507.229 128.732 507.352 129.308 507.352C131.004 507.352 131.852 506.584 131.852 505.048C131.852 503.779 131.239 503.144 130.012 503.144C129.692 503.144 129.388 503.203 129.1 503.32C128.322 503.64 127.772 503.8 127.452 503.8H127.34C127.095 503.8 126.887 503.709 126.716 503.528C126.546 503.347 126.466 503.133 126.476 502.888L126.716 498.232C126.738 497.976 126.834 497.763 127.004 497.592C127.186 497.411 127.404 497.32 127.66 497.32H132.652C132.898 497.32 133.106 497.411 133.276 497.592C133.458 497.773 133.548 497.987 133.548 498.232C133.548 498.477 133.458 498.691 133.276 498.872C133.106 499.043 132.898 499.128 132.652 499.128H128.924C128.828 499.128 128.78 499.176 128.78 499.272L128.652 501.816C128.652 501.827 128.658 501.832 128.668 501.832H128.684L128.7 501.816C129.234 501.56 129.81 501.432 130.428 501.432C131.58 501.432 132.471 501.747 133.1 502.376C133.74 503.005 134.06 503.896 134.06 505.048C134.06 507.789 132.498 509.16 129.372 509.16C128.658 509.16 127.964 509.08 127.292 508.92Z" fill="black"/>
<path d="M140.766 501.8C140.92 501.8 141.053 501.857 141.166 501.97C141.28 502.083 141.336 502.217 141.336 502.37V506.9C141.336 507.467 141.253 507.903 141.086 508.21C140.92 508.523 140.616 508.757 140.176 508.91C139.743 509.07 139.12 509.163 138.306 509.19C138.153 509.197 138.02 509.143 137.906 509.03C137.793 508.917 137.736 508.783 137.736 508.63V508.32C137.736 508.167 137.793 508.033 137.906 507.92C138.013 507.813 138.143 507.753 138.296 507.74C138.73 507.72 139.01 507.653 139.136 507.54C139.27 507.427 139.336 507.213 139.336 506.9V502.37C139.336 502.217 139.393 502.083 139.506 501.97C139.62 501.857 139.753 501.8 139.906 501.8H140.766ZM140.766 499.5C140.92 499.5 141.053 499.557 141.166 499.67C141.28 499.783 141.336 499.917 141.336 500.07V500.33C141.336 500.483 141.28 500.617 141.166 500.73C141.053 500.843 140.92 500.9 140.766 500.9H139.906C139.753 500.9 139.62 500.843 139.506 500.73C139.393 500.617 139.336 500.483 139.336 500.33V500.07C139.336 499.917 139.393 499.783 139.506 499.67C139.62 499.557 139.753 499.5 139.906 499.5H140.766ZM146.295 504.37L147.905 506.54C147.972 506.633 147.979 506.733 147.925 506.84C147.872 506.947 147.789 507 147.675 507H146.665C146.279 507 145.979 506.847 145.765 506.54L144.775 505.11C144.775 505.103 144.769 505.1 144.755 505.1C144.749 505.1 144.745 505.103 144.745 505.11V506.43C144.745 506.583 144.689 506.717 144.575 506.83C144.462 506.943 144.329 507 144.175 507H143.415C143.262 507 143.129 506.943 143.015 506.83C142.902 506.717 142.845 506.583 142.845 506.43V500.07C142.845 499.917 142.902 499.783 143.015 499.67C143.129 499.557 143.262 499.5 143.415 499.5H144.175C144.329 499.5 144.462 499.557 144.575 499.67C144.689 499.783 144.745 499.917 144.745 500.07V503.59C144.745 503.597 144.749 503.6 144.755 503.6L144.775 503.59L145.755 502.26C145.975 501.953 146.279 501.8 146.665 501.8H147.675C147.789 501.8 147.872 501.85 147.925 501.95C147.979 502.05 147.969 502.147 147.895 502.24L146.295 504.23C146.262 504.277 146.262 504.323 146.295 504.37ZM150.558 499.5C150.712 499.5 150.845 499.557 150.958 499.67C151.072 499.783 151.128 499.917 151.128 500.07V506.43C151.128 506.583 151.072 506.717 150.958 506.83C150.845 506.943 150.712 507 150.558 507H149.698C149.545 507 149.412 506.943 149.298 506.83C149.185 506.717 149.128 506.583 149.128 506.43V500.07C149.128 499.917 149.185 499.783 149.298 499.67C149.412 499.557 149.545 499.5 149.698 499.5H150.558Z" fill="black"/>
</g>
<g filter="url(#filter19_d_2_107)">
<path d="M162.956 456C162.956 457.781 162.189 459.668 160.734 461.537C159.282 463.403 157.187 465.194 154.653 466.755C149.578 469.881 142.883 472 136.456 472C130.037 472 123.857 469.886 119.299 466.78C114.698 463.646 111.956 459.659 111.956 456C111.956 452.435 114.581 449.448 119.161 447.299C123.709 445.164 129.929 444 136.456 444C142.984 444 149.72 445.164 154.786 447.314C159.935 449.499 162.956 452.507 162.956 456Z" fill="url(#paint20_linear_2_107)" stroke="url(#paint21_linear_2_107)" stroke-width="2"/>
<path d="M131.916 453.568C131.916 454.571 131.596 455.536 130.956 456.464C130.327 457.381 129.1 458.603 127.276 460.128C127.255 460.149 127.244 460.165 127.244 460.176C127.244 460.187 127.25 460.192 127.26 460.192H131.036C131.282 460.192 131.495 460.283 131.676 460.464C131.858 460.635 131.948 460.843 131.948 461.088C131.948 461.333 131.858 461.547 131.676 461.728C131.495 461.909 131.282 462 131.036 462H125.164C124.919 462 124.706 461.909 124.524 461.728C124.354 461.547 124.268 461.333 124.268 461.088C124.268 460.48 124.498 459.995 124.956 459.632C126.802 458.16 128.039 457.013 128.668 456.192C129.298 455.371 129.612 454.571 129.612 453.792C129.612 452.608 128.978 452.016 127.708 452.016C127.058 452.016 126.268 452.197 125.34 452.56C125.138 452.645 124.946 452.629 124.764 452.512C124.594 452.395 124.508 452.235 124.508 452.032V451.76C124.508 451.483 124.583 451.232 124.732 451.008C124.892 450.773 125.1 450.619 125.356 450.544C126.263 450.288 127.154 450.16 128.028 450.16C129.276 450.16 130.236 450.459 130.908 451.056C131.58 451.653 131.916 452.491 131.916 453.568Z" fill="black"/>
<path d="M137.436 459.9V459.84C137.436 459.78 137.406 459.75 137.346 459.75H137.036C136.37 459.75 136.036 459.95 136.036 460.35C136.036 460.65 136.203 460.8 136.536 460.8C136.796 460.8 137.01 460.72 137.176 460.56C137.35 460.393 137.436 460.173 137.436 459.9ZM136.836 456.7C137.716 456.7 138.353 456.86 138.746 457.18C139.14 457.5 139.336 458.007 139.336 458.7V461.43C139.336 461.583 139.28 461.717 139.166 461.83C139.053 461.943 138.92 462 138.766 462H138.136C137.976 462 137.84 461.947 137.726 461.84C137.613 461.727 137.553 461.59 137.546 461.43V461.35C137.546 461.343 137.543 461.34 137.536 461.34C137.53 461.34 137.523 461.343 137.516 461.35C137.09 461.85 136.563 462.1 135.936 462.1C135.47 462.1 135.086 461.953 134.786 461.66C134.486 461.36 134.336 460.973 134.336 460.5C134.336 459.3 135.236 458.7 137.036 458.7H137.346C137.406 458.7 137.436 458.67 137.436 458.61V458.6C137.436 458.2 137.203 458 136.736 458C136.336 458 135.82 458.06 135.186 458.18C135.046 458.207 134.92 458.177 134.806 458.09C134.693 457.997 134.636 457.877 134.636 457.73V457.57C134.636 457.403 134.686 457.253 134.786 457.12C134.893 456.987 135.026 456.907 135.186 456.88C135.846 456.76 136.396 456.7 136.836 456.7ZM143.294 460.7C143.554 460.7 143.76 460.593 143.914 460.38C144.067 460.16 144.144 459.833 144.144 459.4C144.144 458.533 143.86 458.1 143.294 458.1C143.067 458.1 142.867 458.177 142.694 458.33C142.527 458.483 142.444 458.657 142.444 458.85V459.95C142.444 460.143 142.527 460.317 142.694 460.47C142.867 460.623 143.067 460.7 143.294 460.7ZM143.994 456.7C144.607 456.7 145.094 456.933 145.454 457.4C145.814 457.86 145.994 458.527 145.994 459.4C145.994 460.253 145.804 460.917 145.424 461.39C145.05 461.863 144.574 462.1 143.994 462.1C143.354 462.1 142.827 461.85 142.414 461.35C142.407 461.343 142.4 461.34 142.394 461.34C142.387 461.34 142.384 461.343 142.384 461.35V461.43C142.377 461.59 142.317 461.727 142.204 461.84C142.09 461.947 141.954 462 141.794 462H141.164C141.01 462 140.877 461.943 140.764 461.83C140.65 461.717 140.594 461.583 140.594 461.43V455.07C140.594 454.917 140.65 454.783 140.764 454.67C140.877 454.557 141.01 454.5 141.164 454.5H141.924C142.077 454.5 142.21 454.557 142.324 454.67C142.437 454.783 142.494 454.917 142.494 455.07V457.29C142.494 457.297 142.497 457.3 142.504 457.3C142.51 457.3 142.517 457.297 142.524 457.29C142.97 456.897 143.46 456.7 143.994 456.7ZM150.637 460.63C150.784 460.603 150.914 460.633 151.027 460.72C151.141 460.807 151.197 460.923 151.197 461.07V461.33C151.197 461.497 151.144 461.643 151.037 461.77C150.937 461.897 150.804 461.973 150.637 462C150.171 462.067 149.774 462.1 149.447 462.1C148.561 462.1 147.881 461.873 147.407 461.42C146.934 460.967 146.697 460.293 146.697 459.4C146.697 458.527 146.924 457.86 147.377 457.4C147.837 456.933 148.494 456.7 149.347 456.7C149.674 456.7 150.071 456.733 150.537 456.8C150.704 456.827 150.837 456.903 150.937 457.03C151.044 457.157 151.097 457.303 151.097 457.47V457.73C151.097 457.877 151.041 457.993 150.927 458.08C150.814 458.167 150.684 458.197 150.537 458.17C150.264 458.123 149.984 458.1 149.697 458.1C149.357 458.1 149.104 458.203 148.937 458.41C148.777 458.617 148.697 458.947 148.697 459.4C148.697 459.86 148.784 460.193 148.957 460.4C149.137 460.6 149.417 460.7 149.797 460.7C150.084 460.7 150.364 460.677 150.637 460.63Z" fill="black"/>
</g>
<g filter="url(#filter20_d_2_107)">
<path d="M229.956 573.719C229.956 577.654 228.773 581.78 225.586 585.347C222.398 588.915 217.128 592.009 208.802 593.73C201.867 594.47 195.274 594.401 190.454 593.17C188.039 592.553 186.149 591.664 184.878 590.512C183.637 589.388 182.956 587.991 182.956 586.219C182.956 584.411 183.73 582.189 185.253 579.792C186.768 577.411 188.976 574.932 191.724 572.629C197.224 568.019 204.796 564.186 213.073 563.212C218.435 562.582 222.677 563.385 225.542 565.22C228.362 567.025 229.956 569.896 229.956 573.719Z" fill="url(#paint22_linear_2_107)" stroke="url(#paint23_linear_2_107)" stroke-width="2"/>
<line x1="216.867" y1="569.414" x2="211.867" y2="580.414" stroke="black" stroke-width="2"/>
<line x1="220.867" y1="569.414" x2="215.867" y2="580.414" stroke="black" stroke-width="2"/>
<line x1="223.04" y1="573" x2="210.956" y2="573" stroke="black" stroke-width="2"/>
<line x1="221.04" y1="577" x2="208.956" y2="577" stroke="black" stroke-width="2"/>
<path d="M195.456 582.5H195.956V582H195.456V582.5ZM193.956 582.5L193.583 582.168L192.843 583H193.956V582.5ZM197.956 578L198.33 577.668C198.235 577.561 198.099 577.5 197.956 577.5C197.814 577.5 197.678 577.561 197.583 577.668L197.956 578ZM201.956 582.5V583H203.07L202.33 582.168L201.956 582.5ZM200.456 582.5V582H199.956V582.5H200.456ZM200.456 586V586.5C200.733 586.5 200.956 586.276 200.956 586H200.456ZM195.456 586H194.956C194.956 586.276 195.18 586.5 195.456 586.5V586ZM195.456 582H193.956V583H195.456V582ZM194.33 582.832L198.33 578.332L197.583 577.668L193.583 582.168L194.33 582.832ZM197.583 578.332L201.583 582.832L202.33 582.168L198.33 577.668L197.583 578.332ZM201.956 582H200.456V583H201.956V582ZM199.956 582.5V586H200.956V582.5H199.956ZM200.456 585.5H195.456V586.5H200.456V585.5ZM195.956 586V582.5H194.956V586H195.956Z" fill="black"/>
</g>
<g filter="url(#filter21_d_2_107)">
<path d="M231.956 529.719C231.956 533.654 230.773 537.78 227.586 541.347C224.398 544.915 219.128 548.009 210.802 549.73C203.867 550.47 197.274 550.401 192.454 549.17C190.039 548.553 188.149 547.664 186.878 546.512C185.637 545.388 184.956 543.991 184.956 542.219C184.956 540.411 185.73 538.189 187.253 535.792C188.768 533.411 190.976 530.932 193.724 528.629C199.224 524.019 206.796 520.186 215.073 519.212C220.435 518.582 224.677 519.385 227.542 521.22C230.362 523.025 231.956 525.896 231.956 529.719Z" fill="url(#paint24_linear_2_107)" stroke="url(#paint25_linear_2_107)" stroke-width="2"/>
<path d="M222.028 525.872C221.346 525.872 220.807 526.069 220.412 526.464C220.028 526.859 219.836 527.413 219.836 528.128C219.836 528.917 220.028 529.525 220.412 529.952C220.807 530.368 221.346 530.576 222.028 530.576C222.69 530.576 223.212 530.357 223.596 529.92C223.991 529.483 224.188 528.885 224.188 528.128C224.188 527.445 223.986 526.901 223.58 526.496C223.175 526.08 222.658 525.872 222.028 525.872ZM221.548 532.16C220.322 532.16 219.362 531.813 218.668 531.12C217.986 530.416 217.644 529.429 217.644 528.16C217.644 526.933 218.039 525.963 218.828 525.248C219.618 524.523 220.684 524.16 222.028 524.16C223.436 524.16 224.514 524.587 225.26 525.44C226.018 526.283 226.396 527.563 226.396 529.28C226.396 531.648 225.964 533.387 225.1 534.496C224.236 535.605 222.972 536.16 221.308 536.16C220.775 536.16 220.226 536.112 219.66 536.016C219.404 535.973 219.191 535.851 219.02 535.648C218.85 535.435 218.764 535.195 218.764 534.928C218.764 534.704 218.85 534.528 219.02 534.4C219.202 534.261 219.404 534.219 219.628 534.272C220.183 534.389 220.722 534.448 221.244 534.448C222.108 534.448 222.791 534.187 223.292 533.664C223.804 533.131 224.076 532.363 224.108 531.36V531.328L224.076 531.344C223.468 531.888 222.626 532.16 221.548 532.16Z" fill="black"/>
<path d="M201.436 536.8C201.583 536.8 201.7 536.857 201.786 536.97C201.88 537.077 201.913 537.203 201.886 537.35L201.026 541.45C200.993 541.61 200.91 541.743 200.776 541.85C200.65 541.95 200.503 542 200.336 542H199.276C199.11 542 198.963 541.947 198.836 541.84C198.716 541.733 198.643 541.6 198.616 541.44L198.116 538.41C198.116 538.403 198.113 538.4 198.106 538.4C198.1 538.4 198.096 538.403 198.096 538.41L197.596 541.44C197.57 541.6 197.493 541.733 197.366 541.84C197.246 541.947 197.103 542 196.936 542H195.876C195.71 542 195.56 541.95 195.426 541.85C195.3 541.743 195.22 541.61 195.186 541.45L194.326 537.35C194.3 537.203 194.33 537.077 194.416 536.97C194.51 536.857 194.63 536.8 194.776 536.8H195.506C195.666 536.8 195.806 536.853 195.926 536.96C196.053 537.067 196.126 537.2 196.146 537.36L196.516 540.49C196.516 540.497 196.52 540.5 196.526 540.5C196.533 540.5 196.536 540.497 196.536 540.49L196.996 537.36C197.023 537.2 197.096 537.067 197.216 536.96C197.336 536.853 197.48 536.8 197.646 536.8H198.606C198.773 536.8 198.916 536.853 199.036 536.96C199.156 537.067 199.23 537.2 199.256 537.36L199.716 540.49C199.716 540.497 199.72 540.5 199.726 540.5C199.733 540.5 199.736 540.497 199.736 540.49L200.106 537.36C200.126 537.2 200.196 537.067 200.316 536.96C200.443 536.853 200.586 536.8 200.746 536.8H201.436ZM206.331 539.42L207.471 541.5C207.531 541.613 207.528 541.727 207.461 541.84C207.394 541.947 207.298 542 207.171 542H206.291C206.124 542 205.968 541.953 205.821 541.86C205.681 541.76 205.578 541.63 205.511 541.47L205.031 540.28C205.031 540.273 205.028 540.27 205.021 540.27C205.014 540.27 205.011 540.273 205.011 540.28L204.531 541.47C204.464 541.63 204.361 541.76 204.221 541.86C204.081 541.953 203.924 542 203.751 542H202.911C202.784 542 202.688 541.947 202.621 541.84C202.554 541.727 202.551 541.613 202.611 541.5L203.751 539.42C203.778 539.373 203.778 539.327 203.751 539.28L202.661 537.3C202.601 537.187 202.604 537.077 202.671 536.97C202.738 536.857 202.834 536.8 202.961 536.8H203.841C204.014 536.8 204.171 536.85 204.311 536.95C204.451 537.043 204.551 537.17 204.611 537.33L205.051 538.45C205.051 538.457 205.054 538.46 205.061 538.46C205.068 538.46 205.071 538.457 205.071 538.45L205.511 537.33C205.571 537.17 205.671 537.043 205.811 536.95C205.951 536.85 206.108 536.8 206.281 536.8H207.121C207.248 536.8 207.344 536.857 207.411 536.97C207.478 537.077 207.481 537.187 207.421 537.3L206.331 539.28C206.304 539.327 206.304 539.373 206.331 539.42ZM212.966 536.8C213.106 536.8 213.213 536.857 213.286 536.97C213.366 537.077 213.386 537.197 213.346 537.33L211.076 543.67C211.016 543.83 210.916 543.957 210.776 544.05C210.636 544.15 210.483 544.2 210.316 544.2H209.456C209.316 544.2 209.206 544.143 209.126 544.03C209.053 543.923 209.043 543.807 209.096 543.68L209.756 542.08C209.763 542.053 209.766 542.027 209.766 542C209.766 541.973 209.763 541.947 209.756 541.92L208.036 537.33C207.983 537.203 207.996 537.083 208.076 536.97C208.156 536.857 208.266 536.8 208.406 536.8H209.366C209.526 536.8 209.67 536.853 209.796 536.96C209.93 537.067 210.013 537.2 210.046 537.36L210.626 540.29C210.626 540.297 210.63 540.3 210.636 540.3C210.643 540.3 210.646 540.297 210.646 540.29L211.396 537.35C211.436 537.19 211.523 537.06 211.656 536.96C211.79 536.853 211.94 536.8 212.106 536.8H212.966ZM218.187 536.8C218.34 536.8 218.473 536.857 218.587 536.97C218.7 537.083 218.757 537.217 218.757 537.37V537.53C218.757 537.91 218.633 538.243 218.387 538.53L216.567 540.67C216.56 540.677 216.557 540.683 216.557 540.69C216.557 540.697 216.56 540.7 216.567 540.7H218.187C218.34 540.7 218.473 540.757 218.587 540.87C218.7 540.983 218.757 541.117 218.757 541.27V541.43C218.757 541.583 218.7 541.717 218.587 541.83C218.473 541.943 218.34 542 218.187 542H214.727C214.573 542 214.44 541.943 214.327 541.83C214.213 541.717 214.157 541.583 214.157 541.43V541.27C214.157 540.89 214.28 540.557 214.527 540.27L216.347 538.13C216.353 538.123 216.357 538.117 216.357 538.11C216.357 538.103 216.353 538.1 216.347 538.1H214.727C214.573 538.1 214.44 538.043 214.327 537.93C214.213 537.817 214.157 537.683 214.157 537.53V537.37C214.157 537.217 214.213 537.083 214.327 536.97C214.44 536.857 214.573 536.8 214.727 536.8H218.187Z" fill="black"/>
</g>
<g filter="url(#filter22_d_2_107)">
<path d="M233.956 485.719C233.956 489.654 232.773 493.78 229.586 497.347C226.398 500.915 221.128 504.009 212.802 505.73C205.867 506.47 199.274 506.401 194.454 505.17C192.039 504.553 190.149 503.664 188.878 502.512C187.637 501.388 186.956 499.991 186.956 498.219C186.956 496.411 187.73 494.189 189.253 491.792C190.768 489.411 192.976 486.932 195.724 484.629C201.224 480.019 208.796 476.186 217.073 475.212C222.435 474.582 226.677 475.385 229.542 477.22C232.362 479.025 233.956 481.896 233.956 485.719Z" fill="url(#paint26_linear_2_107)" stroke="url(#paint27_linear_2_107)" stroke-width="2"/>
<path d="M224.124 485.744C223.474 485.744 222.951 485.952 222.556 486.368C222.162 486.784 221.964 487.339 221.964 488.032C221.964 488.779 222.162 489.371 222.556 489.808C222.962 490.235 223.484 490.448 224.124 490.448C224.807 490.448 225.34 490.245 225.724 489.84C226.119 489.424 226.316 488.821 226.316 488.032C226.316 487.317 226.119 486.757 225.724 486.352C225.33 485.947 224.796 485.744 224.124 485.744ZM224.124 492.16C221.212 492.16 219.756 490.4 219.756 486.88C219.756 484.64 220.194 482.96 221.068 481.84C221.954 480.72 223.212 480.16 224.844 480.16C225.314 480.16 225.815 480.203 226.348 480.288C226.604 480.331 226.812 480.459 226.972 480.672C227.143 480.885 227.228 481.125 227.228 481.392C227.228 481.616 227.138 481.792 226.956 481.92C226.786 482.048 226.588 482.085 226.364 482.032C225.927 481.925 225.442 481.872 224.908 481.872C224.119 481.872 223.468 482.139 222.956 482.672C222.455 483.205 222.151 483.968 222.044 484.96V484.992L222.076 484.976C222.684 484.432 223.527 484.16 224.604 484.16C225.831 484.16 226.786 484.501 227.468 485.184C228.162 485.856 228.508 486.795 228.508 488C228.508 489.301 228.114 490.32 227.324 491.056C226.535 491.792 225.468 492.16 224.124 492.16Z" fill="black"/>
<path d="M202.536 493.7C203.11 493.7 203.526 493.857 203.786 494.17C204.053 494.477 204.186 494.987 204.186 495.7V498.43C204.186 498.583 204.13 498.717 204.016 498.83C203.903 498.943 203.77 499 203.616 499H202.906C202.753 499 202.62 498.943 202.506 498.83C202.4 498.717 202.346 498.583 202.346 498.43V495.7C202.346 495.473 202.313 495.32 202.246 495.24C202.18 495.16 202.06 495.12 201.886 495.12C201.753 495.12 201.626 495.163 201.506 495.25C201.393 495.337 201.336 495.42 201.336 495.5V498.43C201.336 498.583 201.28 498.717 201.166 498.83C201.053 498.943 200.92 499 200.766 499H200.056C199.903 499 199.77 498.943 199.656 498.83C199.55 498.717 199.496 498.583 199.496 498.43V495.7C199.496 495.473 199.463 495.32 199.396 495.24C199.33 495.16 199.21 495.12 199.036 495.12C198.903 495.12 198.776 495.163 198.656 495.25C198.543 495.337 198.486 495.42 198.486 495.5V498.43C198.486 498.583 198.43 498.717 198.316 498.83C198.203 498.943 198.07 499 197.916 499H197.156C197.003 499 196.87 498.943 196.756 498.83C196.643 498.717 196.586 498.583 196.586 498.43V494.37C196.586 494.217 196.643 494.083 196.756 493.97C196.87 493.857 197.003 493.8 197.156 493.8H197.766C197.926 493.8 198.063 493.857 198.176 493.97C198.29 494.077 198.353 494.21 198.366 494.37L198.376 494.49C198.376 494.497 198.38 494.5 198.386 494.5C198.4 494.5 198.406 494.497 198.406 494.49C198.586 494.243 198.8 494.05 199.046 493.91C199.3 493.77 199.546 493.7 199.786 493.7C200.093 493.7 200.336 493.753 200.516 493.86C200.703 493.967 200.88 494.16 201.046 494.44C201.046 494.447 201.05 494.45 201.056 494.45C201.07 494.45 201.08 494.447 201.086 494.44C201.58 493.947 202.063 493.7 202.536 493.7ZM207.265 494.45C207.678 493.95 208.188 493.7 208.795 493.7C209.402 493.7 209.835 493.873 210.095 494.22C210.362 494.567 210.495 495.16 210.495 496V498.43C210.495 498.583 210.438 498.717 210.325 498.83C210.212 498.943 210.078 499 209.925 499H209.215C209.062 499 208.928 498.943 208.815 498.83C208.702 498.717 208.645 498.583 208.645 498.43V496C208.645 495.693 208.602 495.483 208.515 495.37C208.428 495.257 208.272 495.2 208.045 495.2C207.858 495.2 207.685 495.273 207.525 495.42C207.372 495.567 207.295 495.727 207.295 495.9V498.43C207.295 498.583 207.238 498.717 207.125 498.83C207.012 498.943 206.878 499 206.725 499H205.965C205.812 499 205.678 498.943 205.565 498.83C205.452 498.717 205.395 498.583 205.395 498.43V494.37C205.395 494.217 205.452 494.083 205.565 493.97C205.678 493.857 205.812 493.8 205.965 493.8H206.645C206.805 493.8 206.942 493.857 207.055 493.97C207.168 494.077 207.228 494.21 207.235 494.37V494.45C207.235 494.457 207.238 494.46 207.245 494.46C207.258 494.46 207.265 494.457 207.265 494.45ZM213.444 497.49C213.57 497.697 213.774 497.8 214.054 497.8C214.334 497.8 214.537 497.697 214.664 497.49C214.79 497.277 214.854 496.913 214.854 496.4C214.854 495.887 214.79 495.527 214.664 495.32C214.537 495.107 214.334 495 214.054 495C213.774 495 213.57 495.107 213.444 495.32C213.317 495.527 213.254 495.887 213.254 496.4C213.254 496.913 213.317 497.277 213.444 497.49ZM212.064 494.42C212.537 493.94 213.2 493.7 214.054 493.7C214.907 493.7 215.57 493.94 216.044 494.42C216.517 494.893 216.754 495.553 216.754 496.4C216.754 497.247 216.517 497.91 216.044 498.39C215.57 498.863 214.907 499.1 214.054 499.1C213.2 499.1 212.537 498.863 212.064 498.39C211.59 497.91 211.354 497.247 211.354 496.4C211.354 495.553 211.59 494.893 212.064 494.42Z" fill="black"/>
</g>
<g filter="url(#filter23_d_2_107)">
<path d="M237.956 442.5C237.956 446.434 236.773 450.561 233.586 454.128C230.398 457.696 225.128 460.789 216.802 462.511C209.867 463.25 203.274 463.181 198.454 461.95C196.039 461.333 194.149 460.445 192.878 459.293C191.637 458.168 190.956 456.772 190.956 455C190.956 453.191 191.73 450.969 193.253 448.573C194.768 446.192 196.976 443.713 199.724 441.41C205.224 436.8 212.796 432.967 221.073 431.993C226.435 431.362 230.677 432.165 233.542 434C236.362 435.806 237.956 438.676 237.956 442.5Z" fill="url(#paint28_linear_2_107)" stroke="url(#paint29_linear_2_107)" stroke-width="2"/>
<path d="M223.148 438.128C222.903 438.128 222.69 438.043 222.508 437.872C222.327 437.691 222.236 437.477 222.236 437.232C222.236 436.987 222.327 436.773 222.508 436.592C222.69 436.411 222.903 436.32 223.148 436.32H228.828C229.074 436.32 229.282 436.411 229.452 436.592C229.634 436.773 229.724 436.987 229.724 437.232C229.724 437.84 229.5 438.341 229.052 438.736L226.46 441.088C226.45 441.099 226.444 441.109 226.444 441.12C226.444 441.131 226.45 441.136 226.46 441.136H226.716C227.698 441.136 228.471 441.419 229.036 441.984C229.602 442.539 229.884 443.317 229.884 444.32C229.884 445.547 229.511 446.496 228.764 447.168C228.018 447.829 226.951 448.16 225.564 448.16C224.743 448.16 223.948 448.064 223.18 447.872C222.924 447.808 222.716 447.664 222.556 447.44C222.396 447.216 222.316 446.965 222.316 446.688V446.512C222.316 446.299 222.402 446.133 222.572 446.016C222.754 445.888 222.951 445.856 223.164 445.92C224.028 446.208 224.796 446.352 225.468 446.352C226.172 446.352 226.716 446.181 227.1 445.84C227.484 445.499 227.676 445.003 227.676 444.352C227.676 443.755 227.458 443.328 227.02 443.072C226.594 442.805 225.836 442.672 224.748 442.672H224.572C224.359 442.672 224.172 442.592 224.012 442.432C223.863 442.272 223.788 442.085 223.788 441.872C223.788 441.339 223.98 440.896 224.364 440.544L226.972 438.176C226.983 438.165 226.988 438.155 226.988 438.144C226.988 438.133 226.983 438.128 226.972 438.128H223.148Z" fill="black"/>
<path d="M202.836 452.95V451.85C202.836 451.657 202.75 451.483 202.576 451.33C202.41 451.177 202.213 451.1 201.986 451.1C201.42 451.1 201.136 451.533 201.136 452.4C201.136 452.833 201.213 453.16 201.366 453.38C201.52 453.593 201.726 453.7 201.986 453.7C202.213 453.7 202.41 453.623 202.576 453.47C202.75 453.317 202.836 453.143 202.836 452.95ZM204.116 447.5C204.27 447.5 204.403 447.557 204.516 447.67C204.63 447.783 204.686 447.917 204.686 448.07V454.43C204.686 454.583 204.63 454.717 204.516 454.83C204.403 454.943 204.27 455 204.116 455H203.486C203.326 455 203.19 454.947 203.076 454.84C202.963 454.727 202.903 454.59 202.896 454.43V454.35C202.896 454.343 202.893 454.34 202.886 454.34C202.88 454.34 202.873 454.343 202.866 454.35C202.46 454.85 201.933 455.1 201.286 455.1C200.706 455.1 200.226 454.863 199.846 454.39C199.473 453.917 199.286 453.253 199.286 452.4C199.286 451.527 199.466 450.86 199.826 450.4C200.186 449.933 200.673 449.7 201.286 449.7C201.82 449.7 202.31 449.897 202.756 450.29C202.763 450.297 202.77 450.3 202.776 450.3C202.783 450.3 202.786 450.297 202.786 450.29V448.07C202.786 447.917 202.843 447.783 202.956 447.67C203.07 447.557 203.203 447.5 203.356 447.5H204.116ZM209.003 451.9C209.063 451.9 209.093 451.87 209.093 451.81C209.086 451.503 209.019 451.283 208.893 451.15C208.773 451.017 208.589 450.95 208.343 450.95C208.083 450.95 207.886 451.017 207.753 451.15C207.626 451.277 207.546 451.5 207.513 451.82C207.513 451.873 207.539 451.9 207.593 451.9H209.003ZM208.293 449.7C209.986 449.7 210.836 450.593 210.843 452.38C210.843 452.54 210.783 452.677 210.663 452.79C210.543 452.897 210.399 452.95 210.233 452.95H207.613C207.553 452.95 207.529 452.98 207.543 453.04C207.603 453.32 207.733 453.517 207.933 453.63C208.139 453.743 208.459 453.8 208.893 453.8C209.166 453.8 209.499 453.76 209.893 453.68C210.033 453.647 210.159 453.677 210.273 453.77C210.386 453.857 210.443 453.973 210.443 454.12V454.28C210.443 454.447 210.389 454.6 210.283 454.74C210.183 454.873 210.053 454.953 209.893 454.98C209.486 455.06 209.053 455.1 208.593 455.1C207.646 455.1 206.916 454.87 206.403 454.41C205.896 453.943 205.643 453.273 205.643 452.4C205.643 451.533 205.869 450.867 206.323 450.4C206.776 449.933 207.433 449.7 208.293 449.7ZM215.556 447.65C215.716 447.67 215.846 447.747 215.946 447.88C216.052 448.007 216.106 448.153 216.106 448.32V448.53C216.106 448.67 216.049 448.783 215.936 448.87C215.829 448.957 215.706 448.99 215.566 448.97C215.446 448.957 215.359 448.95 215.306 448.95C214.992 448.95 214.789 449.003 214.696 449.11C214.602 449.21 214.556 449.44 214.556 449.8V449.91C214.556 449.97 214.586 450 214.646 450H215.436C215.589 450 215.722 450.057 215.836 450.17C215.949 450.283 216.006 450.417 216.006 450.57V450.73C216.006 450.883 215.949 451.017 215.836 451.13C215.722 451.243 215.589 451.3 215.436 451.3H214.646C214.586 451.3 214.556 451.33 214.556 451.39V454.43C214.556 454.583 214.499 454.717 214.386 454.83C214.272 454.943 214.139 455 213.986 455H213.176C213.022 455 212.889 454.943 212.776 454.83C212.662 454.717 212.606 454.583 212.606 454.43V451.39C212.606 451.33 212.576 451.3 212.516 451.3H212.076C211.922 451.3 211.789 451.243 211.676 451.13C211.562 451.017 211.506 450.883 211.506 450.73V450.57C211.506 450.417 211.562 450.283 211.676 450.17C211.789 450.057 211.922 450 212.076 450H212.516C212.576 450 212.606 449.97 212.606 449.91V449.8C212.606 449.04 212.782 448.483 213.136 448.13C213.489 447.777 214.046 447.6 214.806 447.6C215.039 447.6 215.289 447.617 215.556 447.65Z" fill="black"/>
</g>
<g filter="url(#filter24_d_2_107)">
<path d="M92.4841 586.469C92.3659 588.006 91.869 589.274 90.9485 590.308C90.0184 591.352 88.5916 592.229 86.4959 592.856C82.2775 594.119 75.5979 594.299 65.6522 593.059C56.8414 591.093 51.8779 587.692 49.1458 584.178C46.4088 580.658 45.8235 576.912 45.9797 574.101C46.22 569.775 47.5141 567.063 50.275 565.547C53.157 563.965 57.8642 563.542 65.3167 564.532C72.5959 565.996 79.5534 570.016 84.6333 574.484C87.1739 576.718 89.2164 579.04 90.585 581.172C91.9756 583.337 92.584 585.171 92.4841 586.469Z" fill="url(#paint30_linear_2_107)" stroke="url(#paint31_linear_2_107)" stroke-width="2"/>
<line x1="74.4565" y1="581" x2="74.4565" y2="588" stroke="black"/>
<line x1="70.9565" y1="584.5" x2="77.9565" y2="584.5" stroke="black"/>
<line x1="55.7652" y1="571.412" x2="63.7652" y2="582.412" stroke="black" stroke-width="2"/>
<line y1="-1" x2="13.6015" y2="-1" transform="matrix(-0.588172 0.808736 0.808736 0.588172 64.9565 572)" stroke="black" stroke-width="2"/>
<line y1="-1" x2="13.6015" y2="-1" transform="matrix(-1 -8.74228e-08 -8.74228e-08 1 66.558 578)" stroke="black" stroke-width="2"/>
</g>
<g filter="url(#filter25_d_2_107)">
<path d="M89.4841 542.469C89.3659 544.006 88.869 545.274 87.9485 546.308C87.0184 547.352 85.5916 548.229 83.4959 548.856C79.2775 550.119 72.5979 550.299 62.6522 549.059C53.8414 547.093 48.8779 543.692 46.1458 540.178C43.4088 536.658 42.8235 532.912 42.9797 530.101C43.22 525.775 44.5141 523.063 47.275 521.547C50.157 519.965 54.8642 519.542 62.3167 520.532C69.5959 521.996 76.5534 526.016 81.6333 530.484C84.1739 532.718 86.2164 535.04 87.585 537.172C88.9756 539.337 89.584 541.171 89.4841 542.469Z" fill="url(#paint32_linear_2_107)" stroke="url(#paint33_linear_2_107)" stroke-width="2"/>
<path d="M61.2865 541.7C61.5465 541.7 61.7531 541.593 61.9065 541.38C62.0598 541.16 62.1365 540.833 62.1365 540.4C62.1365 539.533 61.8531 539.1 61.2865 539.1C61.0731 539.1 60.8765 539.18 60.6965 539.34C60.5231 539.5 60.4365 539.67 60.4365 539.85V540.95C60.4365 541.13 60.5231 541.3 60.6965 541.46C60.8765 541.62 61.0731 541.7 61.2865 541.7ZM61.9865 537.7C62.5998 537.7 63.0865 537.933 63.4465 538.4C63.8065 538.86 63.9865 539.527 63.9865 540.4C63.9865 541.253 63.7965 541.917 63.4165 542.39C63.0431 542.863 62.5665 543.1 61.9865 543.1C61.4598 543.1 60.9698 542.9 60.5165 542.5C60.5098 542.493 60.5031 542.49 60.4965 542.49C60.4898 542.49 60.4865 542.493 60.4865 542.5V544.63C60.4865 544.783 60.4298 544.917 60.3165 545.03C60.2031 545.143 60.0698 545.2 59.9165 545.2H59.1565C59.0031 545.2 58.8698 545.143 58.7565 545.03C58.6431 544.917 58.5865 544.783 58.5865 544.63V538.37C58.5865 538.217 58.6431 538.083 58.7565 537.97C58.8698 537.857 59.0031 537.8 59.1565 537.8H59.8365C59.9965 537.8 60.1331 537.857 60.2465 537.97C60.3598 538.077 60.4198 538.21 60.4265 538.37V538.45C60.4265 538.457 60.4298 538.46 60.4365 538.46C60.4431 538.46 60.4498 538.457 60.4565 538.45C60.8698 537.95 61.3798 537.7 61.9865 537.7ZM68.2916 540.95V539.85C68.2916 539.67 68.2016 539.5 68.0216 539.34C67.8482 539.18 67.6549 539.1 67.4416 539.1C66.8749 539.1 66.5916 539.533 66.5916 540.4C66.5916 540.833 66.6682 541.16 66.8216 541.38C66.9749 541.593 67.1816 541.7 67.4416 541.7C67.6549 541.7 67.8482 541.62 68.0216 541.46C68.2016 541.3 68.2916 541.13 68.2916 540.95ZM69.5716 537.8C69.7249 537.8 69.8582 537.857 69.9716 537.97C70.0849 538.083 70.1416 538.217 70.1416 538.37V544.63C70.1416 544.783 70.0849 544.917 69.9716 545.03C69.8582 545.143 69.7249 545.2 69.5716 545.2H68.8116C68.6582 545.2 68.5249 545.143 68.4116 545.03C68.2982 544.917 68.2416 544.783 68.2416 544.63V542.5C68.2416 542.493 68.2382 542.49 68.2316 542.49C68.2249 542.49 68.2182 542.493 68.2116 542.5C67.7582 542.9 67.2682 543.1 66.7416 543.1C66.1616 543.1 65.6816 542.863 65.3016 542.39C64.9282 541.917 64.7416 541.253 64.7416 540.4C64.7416 539.527 64.9216 538.86 65.2816 538.4C65.6416 537.933 66.1282 537.7 66.7416 537.7C67.3482 537.7 67.8582 537.95 68.2716 538.45C68.2782 538.457 68.2849 538.46 68.2916 538.46C68.2982 538.46 68.3016 538.457 68.3016 538.45V538.37C68.3082 538.21 68.3682 538.077 68.4816 537.97C68.5949 537.857 68.7316 537.8 68.8916 537.8H69.5716ZM75.029 537.82C75.1823 537.8 75.3156 537.847 75.429 537.96C75.5423 538.073 75.599 538.21 75.599 538.37V538.63C75.599 538.783 75.5456 538.917 75.439 539.03C75.3323 539.137 75.199 539.2 75.039 539.22C74.5256 539.287 74.1156 539.48 73.809 539.8C73.5023 540.113 73.349 540.497 73.349 540.95V542.43C73.349 542.583 73.2923 542.717 73.179 542.83C73.0656 542.943 72.9323 543 72.779 543H71.969C71.8156 543 71.6823 542.943 71.569 542.83C71.4556 542.717 71.399 542.583 71.399 542.43V538.37C71.399 538.217 71.4556 538.083 71.569 537.97C71.6823 537.857 71.8156 537.8 71.969 537.8H72.729C72.8823 537.8 73.0156 537.857 73.129 537.97C73.2423 538.083 73.299 538.217 73.299 538.37V538.79C73.299 538.797 73.3023 538.8 73.309 538.8C73.3156 538.8 73.3223 538.797 73.329 538.79C73.749 538.237 74.3156 537.913 75.029 537.82ZM78.7173 539.65C79.4773 539.75 80.0173 539.943 80.3373 540.23C80.6573 540.51 80.8173 540.917 80.8173 541.45C80.8173 541.977 80.6273 542.383 80.2473 542.67C79.8673 542.957 79.3073 543.1 78.5673 543.1C78.0207 543.1 77.4707 543.047 76.9173 542.94C76.7573 542.907 76.624 542.823 76.5173 542.69C76.4173 542.557 76.3673 542.403 76.3673 542.23V541.97C76.3673 541.83 76.424 541.72 76.5373 541.64C76.6507 541.56 76.774 541.537 76.9073 541.57C77.4073 541.69 77.8773 541.75 78.3173 541.75C78.684 541.75 78.8673 541.643 78.8673 541.43C78.8673 541.33 78.8373 541.257 78.7773 541.21C78.7173 541.163 78.5973 541.127 78.4173 541.1C77.6773 540.98 77.1407 540.773 76.8073 540.48C76.4807 540.187 76.3173 539.793 76.3173 539.3C76.3173 538.793 76.5107 538.4 76.8973 538.12C77.2907 537.84 77.8807 537.7 78.6673 537.7C79.1873 537.7 79.6673 537.733 80.1073 537.8C80.274 537.827 80.4073 537.903 80.5073 538.03C80.614 538.157 80.6673 538.303 80.6673 538.47V538.68C80.6673 538.82 80.6073 538.937 80.4873 539.03C80.374 539.117 80.2473 539.147 80.1073 539.12C79.7007 539.04 79.284 539 78.8573 539C78.6373 539 78.484 539.023 78.3973 539.07C78.3107 539.117 78.2673 539.193 78.2673 539.3C78.2673 539.5 78.4173 539.617 78.7173 539.65Z" fill="black"/>
<path d="M50.0685 527.128C49.8231 527.128 49.6098 527.043 49.4285 526.872C49.2471 526.691 49.1565 526.477 49.1565 526.232C49.1565 525.987 49.2471 525.773 49.4285 525.592C49.6098 525.411 49.8231 525.32 50.0685 525.32H56.1965C56.4418 525.32 56.6551 525.411 56.8365 525.592C57.0178 525.773 57.1085 525.987 57.1085 526.232C57.1085 526.819 56.9485 527.384 56.6285 527.928C55.2205 530.36 54.0151 533.096 53.0125 536.136C52.9271 536.392 52.7725 536.6 52.5485 536.76C52.3351 536.92 52.0951 537 51.8285 537H51.2685C51.0445 537 50.8685 536.909 50.7405 536.728C50.6125 536.547 50.5858 536.349 50.6605 536.136C51.8338 532.883 53.2685 529.901 54.9645 527.192V527.16C54.9645 527.139 54.9591 527.128 54.9485 527.128H50.0685Z" fill="black"/>
</g>
<g filter="url(#filter26_d_2_107)">
<path d="M86.4841 498.469C86.3659 500.006 85.869 501.274 84.9485 502.308C84.0184 503.352 82.5916 504.229 80.4959 504.856C76.2775 506.119 69.5979 506.299 59.6522 505.059C50.8414 503.093 45.8779 499.692 43.1458 496.178C40.4088 492.658 39.8235 488.912 39.9797 486.101C40.22 481.775 41.5141 479.063 44.275 477.547C47.157 475.965 51.8642 475.542 59.3167 476.532C66.5959 477.996 73.5534 482.016 78.6333 486.484C81.1739 488.718 83.2164 491.04 84.585 493.172C85.9756 495.337 86.584 497.171 86.4841 498.469Z" fill="url(#paint34_linear_2_107)" stroke="url(#paint35_linear_2_107)" stroke-width="2"/>
<path d="M63.7365 496.75V495.9C63.7365 495.667 63.6598 495.477 63.5065 495.33C63.3531 495.177 63.1631 495.1 62.9365 495.1C62.4031 495.1 62.1365 495.5 62.1365 496.3C62.1365 496.68 62.2065 496.967 62.3465 497.16C62.4931 497.353 62.6898 497.45 62.9365 497.45C63.1565 497.45 63.3431 497.38 63.4965 497.24C63.6565 497.1 63.7365 496.937 63.7365 496.75ZM65.0165 493.8C65.1698 493.8 65.3031 493.857 65.4165 493.97C65.5298 494.083 65.5865 494.217 65.5865 494.37V498.5C65.5865 499.393 65.3131 500.083 64.7665 500.57C64.2265 501.057 63.4665 501.3 62.4865 501.3C62.1065 501.3 61.7265 501.27 61.3465 501.21C61.1865 501.183 61.0531 501.103 60.9465 500.97C60.8398 500.843 60.7865 500.697 60.7865 500.53V500.12C60.7865 499.98 60.8398 499.87 60.9465 499.79C61.0598 499.717 61.1865 499.697 61.3265 499.73C61.6265 499.81 61.9798 499.85 62.3865 499.85C62.8531 499.85 63.1931 499.747 63.4065 499.54C63.6265 499.333 63.7365 498.987 63.7365 498.5V498.25C63.7365 498.243 63.7331 498.24 63.7265 498.24C63.7131 498.24 63.7065 498.243 63.7065 498.25C63.3465 498.65 62.8731 498.85 62.2865 498.85C61.7065 498.85 61.2265 498.623 60.8465 498.17C60.4731 497.71 60.2865 497.087 60.2865 496.3C60.2865 495.473 60.4665 494.833 60.8265 494.38C61.1931 493.927 61.6798 493.7 62.2865 493.7C62.8665 493.7 63.3598 493.95 63.7665 494.45C63.7731 494.457 63.7798 494.46 63.7865 494.46C63.7931 494.46 63.7965 494.457 63.7965 494.45V494.37C63.8031 494.21 63.8631 494.077 63.9765 493.97C64.0898 493.857 64.2265 493.8 64.3865 493.8H65.0165ZM70.2962 493.7C70.9162 493.7 71.3529 493.88 71.6062 494.24C71.8662 494.593 71.9962 495.247 71.9962 496.2V498.43C71.9962 498.583 71.9396 498.717 71.8262 498.83C71.7129 498.943 71.5796 499 71.4262 499H70.7162C70.5629 499 70.4296 498.943 70.3162 498.83C70.2029 498.717 70.1462 498.583 70.1462 498.43V496.4C70.1462 495.907 70.1029 495.583 70.0162 495.43C69.9362 495.277 69.7796 495.2 69.5462 495.2C69.3596 495.2 69.1862 495.273 69.0262 495.42C68.8729 495.567 68.7962 495.727 68.7962 495.9V498.43C68.7962 498.583 68.7396 498.717 68.6262 498.83C68.5129 498.943 68.3796 499 68.2262 499H67.4662C67.3129 499 67.1796 498.943 67.0662 498.83C66.9529 498.717 66.8962 498.583 66.8962 498.43V492.07C66.8962 491.917 66.9529 491.783 67.0662 491.67C67.1796 491.557 67.3129 491.5 67.4662 491.5H68.2262C68.3796 491.5 68.5129 491.557 68.6262 491.67C68.7396 491.783 68.7962 491.917 68.7962 492.07V494.29C68.7962 494.297 68.7996 494.3 68.8062 494.3C68.8129 494.3 68.8196 494.297 68.8262 494.29C69.2996 493.897 69.7896 493.7 70.2962 493.7ZM74.8337 493.8C74.987 493.8 75.1203 493.857 75.2337 493.97C75.347 494.083 75.4037 494.217 75.4037 494.37V498.43C75.4037 498.583 75.347 498.717 75.2337 498.83C75.1203 498.943 74.987 499 74.8337 499H73.9737C73.8203 499 73.687 498.943 73.5737 498.83C73.4603 498.717 73.4037 498.583 73.4037 498.43V494.37C73.4037 494.217 73.4603 494.083 73.5737 493.97C73.687 493.857 73.8203 493.8 73.9737 493.8H74.8337ZM74.8337 491.5C74.987 491.5 75.1203 491.557 75.2337 491.67C75.347 491.783 75.4037 491.917 75.4037 492.07V492.33C75.4037 492.483 75.347 492.617 75.2337 492.73C75.1203 492.843 74.987 492.9 74.8337 492.9H73.9737C73.8203 492.9 73.687 492.843 73.5737 492.73C73.4603 492.617 73.4037 492.483 73.4037 492.33V492.07C73.4037 491.917 73.4603 491.783 73.5737 491.67C73.687 491.557 73.8203 491.5 73.9737 491.5H74.8337Z" fill="black"/>
<path d="M48.2605 488.792C48.2605 488.803 48.2551 488.808 48.2445 488.808C48.2445 488.808 48.2445 488.813 48.2445 488.824C48.2445 488.835 48.2498 488.84 48.2605 488.84H51.3165C51.4018 488.84 51.4445 488.792 51.4445 488.696V484.264C51.4445 484.253 51.4391 484.248 51.4285 484.248H51.4125L48.2605 488.792ZM47.0445 490.6C46.8098 490.6 46.6018 490.515 46.4205 490.344C46.2498 490.173 46.1645 489.965 46.1645 489.72C46.1645 489.123 46.3351 488.589 46.6765 488.12L50.9325 482.056C51.2738 481.565 51.7485 481.32 52.3565 481.32H52.7085C52.9538 481.32 53.1671 481.411 53.3485 481.592C53.5298 481.773 53.6205 481.987 53.6205 482.232V488.696C53.6205 488.792 53.6631 488.84 53.7485 488.84H54.5165C54.7618 488.84 54.9698 488.925 55.1405 489.096C55.3111 489.267 55.3965 489.475 55.3965 489.72C55.3965 489.965 55.3111 490.173 55.1405 490.344C54.9698 490.515 54.7618 490.6 54.5165 490.6H53.7485C53.6631 490.6 53.6205 490.648 53.6205 490.744V492.088C53.6205 492.333 53.5298 492.547 53.3485 492.728C53.1671 492.909 52.9538 493 52.7085 493H52.3565C52.1111 493 51.8978 492.909 51.7165 492.728C51.5351 492.547 51.4445 492.333 51.4445 492.088V490.744C51.4445 490.648 51.4018 490.6 51.3165 490.6H47.0445Z" fill="black"/>
</g>
<g filter="url(#filter27_d_2_107)">
<path d="M83.4841 455.469C83.3659 457.006 82.869 458.274 81.9485 459.308C81.0184 460.352 79.5916 461.229 77.4959 461.856C73.2775 463.119 66.5979 463.299 56.6522 462.059C47.8414 460.093 42.8779 456.692 40.1458 453.178C37.4088 449.658 36.8235 445.912 36.9797 443.101C37.22 438.775 38.5141 436.063 41.275 434.547C44.157 432.965 48.8642 432.542 56.3167 433.532C63.5959 434.996 70.5534 439.016 75.6333 443.484C78.1739 445.718 80.2164 448.04 81.585 450.172C82.9756 452.337 83.584 454.171 83.4841 455.469Z" fill="url(#paint36_linear_2_107)" stroke="url(#paint37_linear_2_107)" stroke-width="2"/>
<path d="M43.3245 442.624C43.1751 442.741 43.0151 442.757 42.8445 442.672C42.6845 442.587 42.6045 442.453 42.6045 442.272V441.632C42.6045 441.035 42.8445 440.549 43.3245 440.176L45.0365 438.864C45.5165 438.501 46.0605 438.32 46.6685 438.32H47.1485C47.3938 438.32 47.6018 438.411 47.7725 438.592C47.9538 438.773 48.0445 438.987 48.0445 439.232V449.088C48.0445 449.333 47.9538 449.547 47.7725 449.728C47.6018 449.909 47.3938 450 47.1485 450H46.6685C46.4231 450 46.2098 449.909 46.0285 449.728C45.8471 449.547 45.7565 449.333 45.7565 449.088V440.784L45.7405 440.768L45.7245 440.784L43.3245 442.624Z" fill="black"/>
<circle cx="57.9565" cy="452" r="4" stroke="black" stroke-width="2"/>
<circle cx="70.9565" cy="452" r="4" stroke="black" stroke-width="2"/>
<rect x="57.9565" y="455" width="13" height="2" fill="black"/>
</g>
<defs>
<filter id="filter0_f_2_107" x="168" y="0.5" width="98.4565" height="116.105" filterUnits="userSpaceOnUse" color-interpolation-filters="sRGB">
<feFlood flood-opacity="0" result="BackgroundImageFix"/>
<feBlend mode="normal" in="SourceGraphic" in2="BackgroundImageFix" result="shape"/>
<feGaussianBlur stdDeviation="2" result="effect1_foregroundBlur_2_107"/>
</filter>
<filter id="filter1_f_2_107" x="0.956482" y="0.604736" width="94.5" height="190.5" filterUnits="userSpaceOnUse" color-interpolation-filters="sRGB">
<feFlood flood-opacity="0" result="BackgroundImageFix"/>
<feBlend mode="normal" in="SourceGraphic" in2="BackgroundImageFix" result="shape"/>
<feGaussianBlur stdDeviation="2" result="effect1_foregroundBlur_2_107"/>
</filter>
<filter id="filter2_f_2_107" x="7.30359" y="173.605" width="38.5673" height="428.604" filterUnits="userSpaceOnUse" color-interpolation-filters="sRGB">
<feFlood flood-opacity="0" result="BackgroundImageFix"/>
<feBlend mode="normal" in="SourceGraphic" in2="BackgroundImageFix" result="shape"/>
<feGaussianBlur stdDeviation="2.5" result="effect1_foregroundBlur_2_107"/>
</filter>
<filter id="filter3_f_2_107" x="230.956" y="182.605" width="38.5673" height="428.604" filterUnits="userSpaceOnUse" color-interpolation-filters="sRGB">
<feFlood flood-opacity="0" result="BackgroundImageFix"/>
<feBlend mode="normal" in="SourceGraphic" in2="BackgroundImageFix" result="shape"/>
<feGaussianBlur stdDeviation="2.5" result="effect1_foregroundBlur_2_107"/>
</filter>
<filter id="filter4_ii_2_107" x="37.9565" y="119.032" width="200" height="199.468" filterUnits="userSpaceOnUse" color-interpolation-filters="sRGB">
<feFlood flood-opacity="0" result="BackgroundImageFix"/>
<feBlend mode="normal" in="SourceGraphic" in2="BackgroundImageFix" result="shape"/>
<feColorMatrix in="SourceAlpha" type="matrix" values="0 0 0 0 0 0 0 0 0 0 0 0 0 0 0 0 0 0 127 0" result="hardAlpha"/>
<feOffset dx="6" dy="6"/>
<feGaussianBlur stdDeviation="4"/>
<feComposite in2="hardAlpha" operator="arithmetic" k2="-1" k3="1"/>
<feColorMatrix type="matrix" values="0 0 0 0 0 0 0 0 0 0 0 0 0 0 0 0 0 0 0.32 0"/>
<feBlend mode="normal" in2="shape" result="effect1_innerShadow_2_107"/>
<feColorMatrix in="SourceAlpha" type="matrix" values="0 0 0 0 0 0 0 0 0 0 0 0 0 0 0 0 0 0 127 0" result="hardAlpha"/>
<feOffset dx="-5" dy="-5"/>
<feGaussianBlur stdDeviation="4"/>
<feComposite in2="hardAlpha" operator="arithmetic" k2="-1" k3="1"/>
<feColorMatrix type="matrix" values="0 0 0 0 0 0 0 0 0 0 0 0 0 0 0 0 0 0 0.4 0"/>
<feBlend mode="normal" in2="effect1_innerShadow_2_107" result="effect2_innerShadow_2_107"/>
</filter>
<filter id="filter5_f_2_107" x="34" y="193.822" width="206" height="114.698" filterUnits="userSpaceOnUse" color-interpolation-filters="sRGB">
<feFlood flood-opacity="0" result="BackgroundImageFix"/>
<feBlend mode="normal" in="SourceGraphic" in2="BackgroundImageFix" result="shape"/>
<feGaussianBlur stdDeviation="12.5" result="effect1_foregroundBlur_2_107"/>
</filter>
<filter id="filter6_f_2_107" x="216.456" y="120.341" width="23" height="166.623" filterUnits="userSpaceOnUse" color-interpolation-filters="sRGB">
<feFlood flood-opacity="0" result="BackgroundImageFix"/>
<feBlend mode="normal" in="SourceGraphic" in2="BackgroundImageFix" result="shape"/>
<feGaussianBlur stdDeviation="2" result="effect1_foregroundBlur_2_107"/>
</filter>
<filter id="filter7_f_2_107" x="35.9565" y="121.439" width="18" height="69.1897" filterUnits="userSpaceOnUse" color-interpolation-filters="sRGB">
<feFlood flood-opacity="0" result="BackgroundImageFix"/>
<feBlend mode="normal" in="SourceGraphic" in2="BackgroundImageFix" result="shape"/>
<feGaussianBlur stdDeviation="2" result="effect1_foregroundBlur_2_107"/>
</filter>
<filter id="filter8_f_2_107" x="56.9565" y="113" width="161" height="12.2195" filterUnits="userSpaceOnUse" color-interpolation-filters="sRGB">
<feFlood flood-opacity="0" result="BackgroundImageFix"/>
<feBlend mode="normal" in="SourceGraphic" in2="BackgroundImageFix" result="shape"/>
<feGaussianBlur stdDeviation="2" result="effect1_foregroundBlur_2_107"/>
</filter>
<filter id="filter9_i_2_107" x="93.9565" y="90" width="85" height="20" filterUnits="userSpaceOnUse" color-interpolation-filters="sRGB">
<feFlood flood-opacity="0" result="BackgroundImageFix"/>
<feBlend mode="normal" in="SourceGraphic" in2="BackgroundImageFix" result="shape"/>
<feColorMatrix in="SourceAlpha" type="matrix" values="0 0 0 0 0 0 0 0 0 0 0 0 0 0 0 0 0 0 127 0" result="hardAlpha"/>
<feOffset dx="-2" dy="-2"/>
<feGaussianBlur stdDeviation="1"/>
<feComposite in2="hardAlpha" operator="arithmetic" k2="-1" k3="1"/>
<feColorMatrix type="matrix" values="0 0 0 0 1 0 0 0 0 1 0 0 0 0 1 0 0 0 0.35 0"/>
<feBlend mode="normal" in2="shape" result="effect1_innerShadow_2_107"/>
</filter>
<filter id="filter10_i_2_107" x="132.956" y="26.0065" width="8" height="2.96069" filterUnits="userSpaceOnUse" color-interpolation-filters="sRGB">
<feFlood flood-opacity="0" result="BackgroundImageFix"/>
<feBlend mode="normal" in="SourceGraphic" in2="BackgroundImageFix" result="shape"/>
<feColorMatrix in="SourceAlpha" type="matrix" values="0 0 0 0 0 0 0 0 0 0 0 0 0 0 0 0 0 0 127 0" result="hardAlpha"/>
<feOffset dx="-1"/>
<feGaussianBlur stdDeviation="0.5"/>
<feComposite in2="hardAlpha" operator="arithmetic" k2="-1" k3="1"/>
<feColorMatrix type="matrix" values="0 0 0 0 1 0 0 0 0 1 0 0 0 0 1 0 0 0 0.43 0"/>
<feBlend mode="normal" in2="shape" result="effect1_innerShadow_2_107"/>
</filter>
<filter id="filter11_i_2_107" x="132.956" y="36.3689" width="8" height="2.96069" filterUnits="userSpaceOnUse" color-interpolation-filters="sRGB">
<feFlood flood-opacity="0" result="BackgroundImageFix"/>
<feBlend mode="normal" in="SourceGraphic" in2="BackgroundImageFix" result="shape"/>
<feColorMatrix in="SourceAlpha" type="matrix" values="0 0 0 0 0 0 0 0 0 0 0 0 0 0 0 0 0 0 127 0" result="hardAlpha"/>
<feOffset dx="-1"/>
<feGaussianBlur stdDeviation="0.5"/>
<feComposite in2="hardAlpha" operator="arithmetic" k2="-1" k3="1"/>
<feColorMatrix type="matrix" values="0 0 0 0 1 0 0 0 0 1 0 0 0 0 1 0 0 0 0.43 0"/>
<feBlend mode="normal" in2="shape" result="effect1_innerShadow_2_107"/>
</filter>
<filter id="filter12_i_2_107" x="132.956" y="48.9519" width="8" height="2.96069" filterUnits="userSpaceOnUse" color-interpolation-filters="sRGB">
<feFlood flood-opacity="0" result="BackgroundImageFix"/>
<feBlend mode="normal" in="SourceGraphic" in2="BackgroundImageFix" result="shape"/>
<feColorMatrix in="SourceAlpha" type="matrix" values="0 0 0 0 0 0 0 0 0 0 0 0 0 0 0 0 0 0 127 0" result="hardAlpha"/>
<feOffset dx="-1"/>
<feGaussianBlur stdDeviation="0.5"/>
<feComposite in2="hardAlpha" operator="arithmetic" k2="-1" k3="1"/>
<feColorMatrix type="matrix" values="0 0 0 0 1 0 0 0 0 1 0 0 0 0 1 0 0 0 0.43 0"/>
<feBlend mode="normal" in2="shape" result="effect1_innerShadow_2_107"/>
</filter>
<filter id="filter13_i_2_107" x="132.956" y="60.7948" width="8" height="2.96069" filterUnits="userSpaceOnUse" color-interpolation-filters="sRGB">
<feFlood flood-opacity="0" result="BackgroundImageFix"/>
<feBlend mode="normal" in="SourceGraphic" in2="BackgroundImageFix" result="shape"/>
<feColorMatrix in="SourceAlpha" type="matrix" values="0 0 0 0 0 0 0 0 0 0 0 0 0 0 0 0 0 0 127 0" result="hardAlpha"/>
<feOffset dx="-1"/>
<feGaussianBlur stdDeviation="0.5"/>
<feComposite in2="hardAlpha" operator="arithmetic" k2="-1" k3="1"/>
<feColorMatrix type="matrix" values="0 0 0 0 1 0 0 0 0 1 0 0 0 0 1 0 0 0 0.43 0"/>
<feBlend mode="normal" in2="shape" result="effect1_innerShadow_2_107"/>
</filter>
<filter id="filter14_i_2_107" x="132.956" y="72.6376" width="8" height="2.96069" filterUnits="userSpaceOnUse" color-interpolation-filters="sRGB">
<feFlood flood-opacity="0" result="BackgroundImageFix"/>
<feBlend mode="normal" in="SourceGraphic" in2="BackgroundImageFix" result="shape"/>
<feColorMatrix in="SourceAlpha" type="matrix" values="0 0 0 0 0 0 0 0 0 0 0 0 0 0 0 0 0 0 127 0" result="hardAlpha"/>
<feOffset dx="-1"/>
<feGaussianBlur stdDeviation="0.5"/>
<feComposite in2="hardAlpha" operator="arithmetic" k2="-1" k3="1"/>
<feColorMatrix type="matrix" values="0 0 0 0 1 0 0 0 0 1 0 0 0 0 1 0 0 0 0.43 0"/>
<feBlend mode="normal" in2="shape" result="effect1_innerShadow_2_107"/>
</filter>
<filter id="filter15_d_2_107" x="81.9565" y="342" width="109.5" height="32.5" filterUnits="userSpaceOnUse" color-interpolation-filters="sRGB">
<feFlood flood-opacity="0" result="BackgroundImageFix"/>
<feColorMatrix in="SourceAlpha" type="matrix" values="0 0 0 0 0 0 0 0 0 0 0 0 0 0 0 0 0 0 127 0" result="hardAlpha"/>
<feOffset dy="4"/>
<feGaussianBlur stdDeviation="2"/>
<feColorMatrix type="matrix" values="0 0 0 0 0 0 0 0 0 0 0 0 0 0 0 0 0 0 0.25 0"/>
<feBlend mode="normal" in2="BackgroundImageFix" result="effect1_dropShadow_2_107"/>
<feBlend mode="normal" in="SourceGraphic" in2="effect1_dropShadow_2_107" result="shape"/>
</filter>
<filter id="filter16_d_2_107" x="108.956" y="574" width="61" height="38" filterUnits="userSpaceOnUse" color-interpolation-filters="sRGB">
<feFlood flood-opacity="0" result="BackgroundImageFix"/>
<feColorMatrix in="SourceAlpha" type="matrix" values="0 0 0 0 0 0 0 0 0 0 0 0 0 0 0 0 0 0 127 0" result="hardAlpha"/>
<feOffset dx="2" dy="2"/>
<feGaussianBlur stdDeviation="2"/>
<feColorMatrix type="matrix" values="0 0 0 0 0 0 0 0 0 0 0 0 0 0 0 0 0 0 0.43 0"/>
<feBlend mode="normal" in2="BackgroundImageFix" result="effect1_dropShadow_2_107"/>
<feBlend mode="normal" in="SourceGraphic" in2="effect1_dropShadow_2_107" result="shape"/>
</filter>
<filter id="filter17_d_2_107" x="108.956" y="529" width="61" height="38" filterUnits="userSpaceOnUse" color-interpolation-filters="sRGB">
<feFlood flood-opacity="0" result="BackgroundImageFix"/>
<feColorMatrix in="SourceAlpha" type="matrix" values="0 0 0 0 0 0 0 0 0 0 0 0 0 0 0 0 0 0 127 0" result="hardAlpha"/>
<feOffset dx="2" dy="2"/>
<feGaussianBlur stdDeviation="2"/>
<feColorMatrix type="matrix" values="0 0 0 0 0 0 0 0 0 0 0 0 0 0 0 0 0 0 0.43 0"/>
<feBlend mode="normal" in2="BackgroundImageFix" result="effect1_dropShadow_2_107"/>
<feBlend mode="normal" in="SourceGraphic" in2="effect1_dropShadow_2_107" result="shape"/>
</filter>
<filter id="filter18_d_2_107" x="108.956" y="485" width="61" height="38" filterUnits="userSpaceOnUse" color-interpolation-filters="sRGB">
<feFlood flood-opacity="0" result="BackgroundImageFix"/>
<feColorMatrix in="SourceAlpha" type="matrix" values="0 0 0 0 0 0 0 0 0 0 0 0 0 0 0 0 0 0 127 0" result="hardAlpha"/>
<feOffset dx="2" dy="2"/>
<feGaussianBlur stdDeviation="2"/>
<feColorMatrix type="matrix" values="0 0 0 0 0 0 0 0 0 0 0 0 0 0 0 0 0 0 0.43 0"/>
<feBlend mode="normal" in2="BackgroundImageFix" result="effect1_dropShadow_2_107"/>
<feBlend mode="normal" in="SourceGraphic" in2="effect1_dropShadow_2_107" result="shape"/>
</filter>
<filter id="filter19_d_2_107" x="108.956" y="441" width="61" height="38" filterUnits="userSpaceOnUse" color-interpolation-filters="sRGB">
<feFlood flood-opacity="0" result="BackgroundImageFix"/>
<feColorMatrix in="SourceAlpha" type="matrix" values="0 0 0 0 0 0 0 0 0 0 0 0 0 0 0 0 0 0 127 0" result="hardAlpha"/>
<feOffset dx="2" dy="2"/>
<feGaussianBlur stdDeviation="2"/>
<feColorMatrix type="matrix" values="0 0 0 0 0 0 0 0 0 0 0 0 0 0 0 0 0 0 0.43 0"/>
<feBlend mode="normal" in2="BackgroundImageFix" result="effect1_dropShadow_2_107"/>
<feBlend mode="normal" in="SourceGraphic" in2="effect1_dropShadow_2_107" result="shape"/>
</filter>
<filter id="filter20_d_2_107" x="179.956" y="560" width="57" height="41.2079" filterUnits="userSpaceOnUse" color-interpolation-filters="sRGB">
<feFlood flood-opacity="0" result="BackgroundImageFix"/>
<feColorMatrix in="SourceAlpha" type="matrix" values="0 0 0 0 0 0 0 0 0 0 0 0 0 0 0 0 0 0 127 0" result="hardAlpha"/>
<feOffset dx="2" dy="2"/>
<feGaussianBlur stdDeviation="2"/>
<feColorMatrix type="matrix" values="0 0 0 0 0 0 0 0 0 0 0 0 0 0 0 0 0 0 0.43 0"/>
<feBlend mode="normal" in2="BackgroundImageFix" result="effect1_dropShadow_2_107"/>
<feBlend mode="normal" in="SourceGraphic" in2="effect1_dropShadow_2_107" result="shape"/>
</filter>
<filter id="filter21_d_2_107" x="181.956" y="516" width="57" height="41.2079" filterUnits="userSpaceOnUse" color-interpolation-filters="sRGB">
<feFlood flood-opacity="0" result="BackgroundImageFix"/>
<feColorMatrix in="SourceAlpha" type="matrix" values="0 0 0 0 0 0 0 0 0 0 0 0 0 0 0 0 0 0 127 0" result="hardAlpha"/>
<feOffset dx="2" dy="2"/>
<feGaussianBlur stdDeviation="2"/>
<feColorMatrix type="matrix" values="0 0 0 0 0 0 0 0 0 0 0 0 0 0 0 0 0 0 0.43 0"/>
<feBlend mode="normal" in2="BackgroundImageFix" result="effect1_dropShadow_2_107"/>
<feBlend mode="normal" in="SourceGraphic" in2="effect1_dropShadow_2_107" result="shape"/>
</filter>
<filter id="filter22_d_2_107" x="183.956" y="472" width="57" height="41.2079" filterUnits="userSpaceOnUse" color-interpolation-filters="sRGB">
<feFlood flood-opacity="0" result="BackgroundImageFix"/>
<feColorMatrix in="SourceAlpha" type="matrix" values="0 0 0 0 0 0 0 0 0 0 0 0 0 0 0 0 0 0 127 0" result="hardAlpha"/>
<feOffset dx="2" dy="2"/>
<feGaussianBlur stdDeviation="2"/>
<feColorMatrix type="matrix" values="0 0 0 0 0 0 0 0 0 0 0 0 0 0 0 0 0 0 0.43 0"/>
<feBlend mode="normal" in2="BackgroundImageFix" result="effect1_dropShadow_2_107"/>
<feBlend mode="normal" in="SourceGraphic" in2="effect1_dropShadow_2_107" result="shape"/>
</filter>
<filter id="filter23_d_2_107" x="187.956" y="428.781" width="57" height="41.2079" filterUnits="userSpaceOnUse" color-interpolation-filters="sRGB">
<feFlood flood-opacity="0" result="BackgroundImageFix"/>
<feColorMatrix in="SourceAlpha" type="matrix" values="0 0 0 0 0 0 0 0 0 0 0 0 0 0 0 0 0 0 127 0" result="hardAlpha"/>
<feOffset dx="2" dy="2"/>
<feGaussianBlur stdDeviation="2"/>
<feColorMatrix type="matrix" values="0 0 0 0 0 0 0 0 0 0 0 0 0 0 0 0 0 0 0.43 0"/>
<feBlend mode="normal" in2="BackgroundImageFix" result="effect1_dropShadow_2_107"/>
<feBlend mode="normal" in="SourceGraphic" in2="effect1_dropShadow_2_107" result="shape"/>
</filter>
<filter id="filter24_d_2_107" x="42.9565" y="561" width="56.5382" height="39.9017" filterUnits="userSpaceOnUse" color-interpolation-filters="sRGB">
<feFlood flood-opacity="0" result="BackgroundImageFix"/>
<feColorMatrix in="SourceAlpha" type="matrix" values="0 0 0 0 0 0 0 0 0 0 0 0 0 0 0 0 0 0 127 0" result="hardAlpha"/>
<feOffset dx="2" dy="2"/>
<feGaussianBlur stdDeviation="2"/>
<feColorMatrix type="matrix" values="0 0 0 0 0 0 0 0 0 0 0 0 0 0 0 0 0 0 0.43 0"/>
<feBlend mode="normal" in2="BackgroundImageFix" result="effect1_dropShadow_2_107"/>
<feBlend mode="normal" in="SourceGraphic" in2="effect1_dropShadow_2_107" result="shape"/>
</filter>
<filter id="filter25_d_2_107" x="39.9565" y="517" width="56.5382" height="39.9017" filterUnits="userSpaceOnUse" color-interpolation-filters="sRGB">
<feFlood flood-opacity="0" result="BackgroundImageFix"/>
<feColorMatrix in="SourceAlpha" type="matrix" values="0 0 0 0 0 0 0 0 0 0 0 0 0 0 0 0 0 0 127 0" result="hardAlpha"/>
<feOffset dx="2" dy="2"/>
<feGaussianBlur stdDeviation="2"/>
<feColorMatrix type="matrix" values="0 0 0 0 0 0 0 0 0 0 0 0 0 0 0 0 0 0 0.43 0"/>
<feBlend mode="normal" in2="BackgroundImageFix" result="effect1_dropShadow_2_107"/>
<feBlend mode="normal" in="SourceGraphic" in2="effect1_dropShadow_2_107" result="shape"/>
</filter>
<filter id="filter26_d_2_107" x="36.9565" y="473" width="56.5382" height="39.9017" filterUnits="userSpaceOnUse" color-interpolation-filters="sRGB">
<feFlood flood-opacity="0" result="BackgroundImageFix"/>
<feColorMatrix in="SourceAlpha" type="matrix" values="0 0 0 0 0 0 0 0 0 0 0 0 0 0 0 0 0 0 127 0" result="hardAlpha"/>
<feOffset dx="2" dy="2"/>
<feGaussianBlur stdDeviation="2"/>
<feColorMatrix type="matrix" values="0 0 0 0 0 0 0 0 0 0 0 0 0 0 0 0 0 0 0.43 0"/>
<feBlend mode="normal" in2="BackgroundImageFix" result="effect1_dropShadow_2_107"/>
<feBlend mode="normal" in="SourceGraphic" in2="effect1_dropShadow_2_107" result="shape"/>
</filter>
<filter id="filter27_d_2_107" x="33.9565" y="430" width="56.5382" height="39.9017" filterUnits="userSpaceOnUse" color-interpolation-filters="sRGB">
<feFlood flood-opacity="0" result="BackgroundImageFix"/>
<feColorMatrix in="SourceAlpha" type="matrix" values="0 0 0 0 0 0 0 0 0 0 0 0 0 0 0 0 0 0 127 0" result="hardAlpha"/>
<feOffset dx="2" dy="2"/>
<feGaussianBlur stdDeviation="2"/>
<feColorMatrix type="matrix" values="0 0 0 0 0 0 0 0 0 0 0 0 0 0 0 0 0 0 0.43 0"/>
<feBlend mode="normal" in2="BackgroundImageFix" result="effect1_dropShadow_2_107"/>
<feBlend mode="normal" in="SourceGraphic" in2="effect1_dropShadow_2_107" result="shape"/>
</filter>
<linearGradient id="paint0_linear_2_107" x1="234.456" y1="18.1047" x2="136.439" y2="624.189" gradientUnits="userSpaceOnUse">
<stop stop-color="#363746"/>
<stop offset="1" stop-color="#424358"/>
</linearGradient>
<linearGradient id="paint1_linear_2_107" x1="68.9565" y1="4.60474" x2="-11.0435" y2="225.105" gradientUnits="userSpaceOnUse">
<stop stop-color="white" stop-opacity="0.5"/>
<stop offset="0.211458" stop-color="white" stop-opacity="0.86"/>
<stop offset="0.8" stop-color="white" stop-opacity="0.66"/>
<stop offset="1" stop-color="white" stop-opacity="0"/>
<stop offset="1" stop-color="white" stop-opacity="0.34"/>
</linearGradient>
<linearGradient id="paint2_linear_2_107" x1="26.5872" y1="178.605" x2="26.5872" y2="597.208" gradientUnits="userSpaceOnUse">
<stop offset="0.367708" stop-color="white"/>
<stop offset="1" stop-color="white" stop-opacity="0.49"/>
</linearGradient>
<linearGradient id="paint3_linear_2_107" x1="250.24" y1="187.605" x2="250.24" y2="606.208" gradientUnits="userSpaceOnUse">
<stop stop-color="white" stop-opacity="0.45"/>
<stop offset="0.378125" stop-color="white"/>
<stop offset="1" stop-color="white" stop-opacity="0.49"/>
</linearGradient>
<linearGradient id="paint4_linear_2_107" x1="239.956" y1="50.9898" x2="22.6566" y2="336.518" gradientUnits="userSpaceOnUse">
<stop stop-color="#EFEEF6"/>
<stop offset="1" stop-color="#CBCCCE"/>
</linearGradient>
<linearGradient id="paint5_linear_2_107" x1="45.9106" y1="15.5364" x2="45.9106" y2="376.306" gradientUnits="userSpaceOnUse">
<stop stop-color="white" stop-opacity="0"/>
<stop offset="0.164583" stop-color="white"/>
<stop offset="0.753125" stop-color="white" stop-opacity="0.46"/>
<stop offset="1" stop-color="white" stop-opacity="0.16"/>
</linearGradient>
<linearGradient id="paint6_linear_2_107" x1="236.956" y1="24.8809" x2="63.1295" y2="425.79" gradientUnits="userSpaceOnUse">
<stop stop-color="#BABBBD" stop-opacity="0"/>
<stop offset="0.247917" stop-color="#BABBBD"/>
<stop offset="0.55" stop-color="#9D9D9D"/>
<stop offset="0.919792" stop-color="white" stop-opacity="0.35"/>
</linearGradient>
<linearGradient id="paint7_linear_2_107" x1="57.3621" y1="31.1921" x2="207.704" y2="346.354" gradientUnits="userSpaceOnUse">
<stop stop-color="#7A7C94"/>
<stop offset="0.497917" stop-color="#3F4458"/>
</linearGradient>
<linearGradient id="paint8_linear_2_107" x1="34.4565" y1="76.9155" x2="140.537" y2="325.619" gradientUnits="userSpaceOnUse">
<stop stop-color="white" stop-opacity="0.39"/>
<stop offset="1" stop-opacity="0.41"/>
</linearGradient>
<linearGradient id="paint9_linear_2_107" x1="137" y1="218.822" x2="137" y2="283.52" gradientUnits="userSpaceOnUse">
<stop stop-color="#77A67E"/>
<stop stop-color="#C4C4C4"/>
<stop offset="0.0001" stop-color="#77A67E"/>
<stop offset="1" stop-color="#547659"/>
</linearGradient>
<linearGradient id="paint10_linear_2_107" x1="55.9565" y1="138.8" x2="131.375" y2="197.785" gradientUnits="userSpaceOnUse">
<stop stop-color="white"/>
<stop offset="0.95625" stop-color="#C4C4C4" stop-opacity="0"/>
</linearGradient>
<linearGradient id="paint11_linear_2_107" x1="131.956" y1="51.5425" x2="143.956" y2="51.5425" gradientUnits="userSpaceOnUse">
<stop offset="0.20625" stop-color="#55586A"/>
<stop offset="1" stop-color="#707386"/>
</linearGradient>
<linearGradient id="paint12_linear_2_107" x1="92.4565" y1="347.791" x2="176.09" y2="360.084" gradientUnits="userSpaceOnUse">
<stop stop-color="#D6D5DA"/>
<stop offset="1" stop-color="#ADADAD"/>
</linearGradient>
<linearGradient id="paint13_linear_2_107" x1="96.9565" y1="344.673" x2="165.604" y2="370.904" gradientUnits="userSpaceOnUse">
<stop stop-color="#E8E9ED"/>
<stop offset="1" stop-color="#D3D3D3"/>
</linearGradient>
<linearGradient id="paint14_linear_2_107" x1="115.456" y1="582.5" x2="160.456" y2="595" gradientUnits="userSpaceOnUse">
<stop stop-color="#E7E7E7"/>
<stop offset="1" stop-color="#CDC5C5"/>
</linearGradient>
<linearGradient id="paint15_linear_2_107" x1="110.956" y1="583" x2="165.456" y2="603.5" gradientUnits="userSpaceOnUse">
<stop stop-color="#D3D3D3"/>
<stop offset="1" stop-color="#EEEEEE"/>
</linearGradient>
<linearGradient id="paint16_linear_2_107" x1="115.456" y1="537.5" x2="160.456" y2="550" gradientUnits="userSpaceOnUse">
<stop stop-color="white"/>
<stop offset="1" stop-color="#CDC5C5"/>
</linearGradient>
<linearGradient id="paint17_linear_2_107" x1="110.956" y1="538" x2="165.456" y2="558.5" gradientUnits="userSpaceOnUse">
<stop stop-color="#D3D3D3"/>
<stop offset="1" stop-color="#EEEEEE"/>
</linearGradient>
<linearGradient id="paint18_linear_2_107" x1="115.456" y1="493.5" x2="160.456" y2="506" gradientUnits="userSpaceOnUse">
<stop stop-color="#EFEFEF"/>
<stop offset="1" stop-color="#CDC5C5"/>
</linearGradient>
<linearGradient id="paint19_linear_2_107" x1="110.956" y1="494" x2="165.456" y2="514.5" gradientUnits="userSpaceOnUse">
<stop stop-color="#D3D3D3"/>
<stop offset="1" stop-color="#EEEEEE"/>
</linearGradient>
<linearGradient id="paint20_linear_2_107" x1="115.456" y1="449.5" x2="160.456" y2="462" gradientUnits="userSpaceOnUse">
<stop stop-color="#E3E2E2"/>
<stop offset="1" stop-color="#B1B1B1"/>
</linearGradient>
<linearGradient id="paint21_linear_2_107" x1="110.956" y1="450" x2="165.456" y2="470.5" gradientUnits="userSpaceOnUse">
<stop stop-color="#D3D3D3"/>
<stop offset="1" stop-color="#EEEEEE"/>
</linearGradient>
<linearGradient id="paint22_linear_2_107" x1="182.956" y1="584.719" x2="228.956" y2="569.219" gradientUnits="userSpaceOnUse">
<stop offset="0.195833" stop-color="#DADADA"/>
<stop offset="1" stop-color="#B5B5B5"/>
</linearGradient>
<linearGradient id="paint23_linear_2_107" x1="180.456" y1="574.219" x2="236.956" y2="574.219" gradientUnits="userSpaceOnUse">
<stop stop-color="#F4F4F4" stop-opacity="0.44"/>
<stop offset="1" stop-color="#EBEBEB"/>
</linearGradient>
<linearGradient id="paint24_linear_2_107" x1="184.956" y1="540.719" x2="230.956" y2="525.219" gradientUnits="userSpaceOnUse">
<stop offset="0.195833" stop-color="#DADADA"/>
<stop offset="1" stop-color="#B5B5B5"/>
</linearGradient>
<linearGradient id="paint25_linear_2_107" x1="182.456" y1="530.219" x2="238.956" y2="530.219" gradientUnits="userSpaceOnUse">
<stop stop-color="#F9F9F9" stop-opacity="0.41"/>
<stop offset="1" stop-color="#EBEBEB"/>
</linearGradient>
<linearGradient id="paint26_linear_2_107" x1="186.956" y1="496.719" x2="232.956" y2="481.219" gradientUnits="userSpaceOnUse">
<stop offset="0.195833" stop-color="#DADADA"/>
<stop offset="1" stop-color="#B5B5B5"/>
</linearGradient>
<linearGradient id="paint27_linear_2_107" x1="184.456" y1="486.219" x2="240.956" y2="486.219" gradientUnits="userSpaceOnUse">
<stop stop-color="#F1F1F1" stop-opacity="0.44"/>
<stop offset="1" stop-color="#EBEBEB"/>
</linearGradient>
<linearGradient id="paint28_linear_2_107" x1="190.956" y1="453.5" x2="236.956" y2="438" gradientUnits="userSpaceOnUse">
<stop offset="0.195833" stop-color="#DADADA"/>
<stop offset="1" stop-color="#B5B5B5"/>
</linearGradient>
<linearGradient id="paint29_linear_2_107" x1="188.456" y1="443" x2="244.956" y2="443" gradientUnits="userSpaceOnUse">
<stop stop-color="#FEFEFE" stop-opacity="0.54"/>
<stop offset="1" stop-color="#EBEBEB"/>
</linearGradient>
<linearGradient id="paint30_linear_2_107" x1="57.9565" y1="589" x2="85.4565" y2="576" gradientUnits="userSpaceOnUse">
<stop stop-color="#E1E1E1"/>
<stop offset="1" stop-color="#9E9E9E"/>
</linearGradient>
<linearGradient id="paint31_linear_2_107" x1="45.9565" y1="567.5" x2="92.4565" y2="593" gradientUnits="userSpaceOnUse">
<stop stop-color="white"/>
<stop offset="1" stop-opacity="0"/>
<stop offset="1" stop-color="#F5F4F9"/>
</linearGradient>
<linearGradient id="paint32_linear_2_107" x1="51.4565" y1="544.5" x2="79.9565" y2="531.5" gradientUnits="userSpaceOnUse">
<stop stop-color="#E7E7E7"/>
<stop offset="1" stop-color="#9E9E9E"/>
</linearGradient>
<linearGradient id="paint33_linear_2_107" x1="42.9565" y1="523.5" x2="89.4565" y2="549" gradientUnits="userSpaceOnUse">
<stop stop-color="white"/>
<stop offset="1" stop-opacity="0"/>
<stop offset="1" stop-color="#F5F4F9"/>
</linearGradient>
<linearGradient id="paint34_linear_2_107" x1="48.9565" y1="501.5" x2="79.4565" y2="489" gradientUnits="userSpaceOnUse">
<stop stop-color="#ECECEC"/>
<stop offset="1" stop-color="#B1B1B1"/>
</linearGradient>
<linearGradient id="paint35_linear_2_107" x1="39.9565" y1="479.5" x2="86.4565" y2="505" gradientUnits="userSpaceOnUse">
<stop stop-color="white"/>
<stop offset="1" stop-opacity="0"/>
<stop offset="1" stop-color="#F5F4F9"/>
</linearGradient>
<linearGradient id="paint36_linear_2_107" x1="46.4565" y1="457.5" x2="76.9565" y2="444" gradientUnits="userSpaceOnUse">
<stop stop-color="#F2F3EE"/>
<stop offset="1" stop-color="#9E9E9E"/>
</linearGradient>
<linearGradient id="paint37_linear_2_107" x1="36.9565" y1="436.5" x2="83.4565" y2="462" gradientUnits="userSpaceOnUse">
<stop stop-color="white"/>
<stop offset="1" stop-opacity="0"/>
<stop offset="1" stop-color="#F5F4F9"/>
</linearGradient>
</defs>
</svg>
